<svg id="logo" xmlns="http://www.w3.org/2000/svg" viewBox="0 0 94.22 28"><defs><style>.cls-1{fill:#fff;}</style></defs><path class="cls-1" d="M14,0A14,14,0,1,0,28,14,14,14,0,0,0,14,0Zm9.37,10.1c-7.19,2-7,6.28-3.71,7.4V19H17.13c-.2-.26-1-.74-2.69-.74s-2.5.48-2.7.74H9.22V17.5c3.25-1.23,3.41-3.65,2.13-4.15H9.83v-.2a6.32,6.32,0,0,1-5.73-3,.26.26,0,0,1,.2-.42H9.83v-.2h1.52V9H23.94s0,.62,0,.74S23.72,10,23.37,10.1Z"/><path class="cls-1" d="M33.35,22V6H44.58V9.49H37.69v2.75H43.9v3.49H37.69V22Z"/><path class="cls-1" d="M51.13,22.19a6.67,6.67,0,0,1-3.33-.77,5.24,5.24,0,0,1-2.13-2.17A6.72,6.72,0,0,1,44.93,16a6.74,6.74,0,0,1,.74-3.24,5.24,5.24,0,0,1,2.13-2.17,7.61,7.61,0,0,1,6.67,0,5.24,5.24,0,0,1,2.13,2.17A6.74,6.74,0,0,1,57.34,16a6.72,6.72,0,0,1-.74,3.23,5.24,5.24,0,0,1-2.13,2.17A6.71,6.71,0,0,1,51.13,22.19Zm0-3.18a1.33,1.33,0,0,0,.94-.37,2.35,2.35,0,0,0,.62-1A5.49,5.49,0,0,0,52.94,16a5.47,5.47,0,0,0-.21-1.61,2.44,2.44,0,0,0-.62-1,1.37,1.37,0,0,0-.94-.36,1.44,1.44,0,0,0-1,.36,2.37,2.37,0,0,0-.64,1,6,6,0,0,0,0,3.23,2.28,2.28,0,0,0,.64,1A1.4,1.4,0,0,0,51.17,19Z"/><path class="cls-1" d="M59.09,22V10h4.18v2.28h.13a3.41,3.41,0,0,1,1-1.85,2.54,2.54,0,0,1,1.67-.58,3.52,3.52,0,0,1,.56,0,4.54,4.54,0,0,1,.53.12v3.68a3.51,3.51,0,0,0-.78-.17c-.32,0-.58,0-.81,0a2.23,2.23,0,0,0-1.13.28,2,2,0,0,0-.79.8,2.31,2.31,0,0,0-.29,1.19V22Z"/><path class="cls-1" d="M73.69,26.59a8.32,8.32,0,0,1-3.08-.5,4.71,4.71,0,0,1-2-1.37,3.45,3.45,0,0,1-.79-2H72a.86.86,0,0,0,.31.52,1.66,1.66,0,0,0,.64.31,3.46,3.46,0,0,0,.89.1,2.32,2.32,0,0,0,1.38-.39,1.54,1.54,0,0,0,.55-1.36v-2h-.12a2.67,2.67,0,0,1-.72,1,3.36,3.36,0,0,1-1.16.65,5,5,0,0,1-1.49.22,4.79,4.79,0,0,1-2.35-.59,4.27,4.27,0,0,1-1.72-1.88A7.55,7.55,0,0,1,67.55,16a7.92,7.92,0,0,1,.67-3.52,4.53,4.53,0,0,1,1.75-2,4.39,4.39,0,0,1,2.26-.63,3.65,3.65,0,0,1,1.56.31,3.19,3.19,0,0,1,1.12.82,3.81,3.81,0,0,1,.69,1.11h.09V10H80v12a4,4,0,0,1-.79,2.5A4.89,4.89,0,0,1,77,26,9.1,9.1,0,0,1,73.69,26.59Zm.16-7.83a1.64,1.64,0,0,0,1-.33,2.09,2.09,0,0,0,.65-.95,4.19,4.19,0,0,0,.23-1.5,4.3,4.3,0,0,0-.23-1.52,2.19,2.19,0,0,0-.65-1,1.64,1.64,0,0,0-1-.33,1.57,1.57,0,0,0-1,.33,2.18,2.18,0,0,0-.64,1A4.56,4.56,0,0,0,72,16a4.42,4.42,0,0,0,.22,1.51,2,2,0,0,0,.64,1A1.62,1.62,0,0,0,73.85,18.76Z"/><path class="cls-1" d="M86.52,22.13a4.35,4.35,0,0,1-2.36-.67,4.72,4.72,0,0,1-1.71-2A8,8,0,0,1,81.8,16a7.91,7.91,0,0,1,.68-3.52,4.53,4.53,0,0,1,1.75-2,4.35,4.35,0,0,1,2.25-.63,3.67,3.67,0,0,1,1.57.31,3.19,3.19,0,0,1,1.12.82,3.58,3.58,0,0,1,.68,1.11h.07V6h4.3V22H90V20h-.1A3.31,3.31,0,0,1,88,21.85,3.75,3.75,0,0,1,86.52,22.13Zm1.59-3.31a1.59,1.59,0,0,0,1-.34,2.17,2.17,0,0,0,.65-1A4.48,4.48,0,0,0,90,16a4.54,4.54,0,0,0-.23-1.52,2.19,2.19,0,0,0-.65-1,1.64,1.64,0,0,0-1-.33,1.57,1.57,0,0,0-1,.33,2.18,2.18,0,0,0-.64,1A4.56,4.56,0,0,0,86.24,16a4.58,4.58,0,0,0,.22,1.53,2.09,2.09,0,0,0,.64,1A1.52,1.52,0,0,0,88.11,18.82Z"/></svg>