<?xml version="1.0" encoding="utf-8"?>
<!-- Generator: Adobe Illustrator 24.1.3, SVG Export Plug-In . SVG Version: 6.00 Build 0)  -->
<svg version="1.1" id="logo" xmlns="http://www.w3.org/2000/svg" xmlns:xlink="http://www.w3.org/1999/xlink" x="0px" y="0px"
	 viewBox="0 0 32 32" style="enable-background:new 0 0 32 32;" xml:space="preserve">
<style type="text/css">
	.st0{fill:#03272B;}
</style>
<path class="st0" d="M16,0C7.2,0,0,7.2,0,16s7.2,16,16,16s16-7.2,16-16S24.8,0,16,0z M27.3,12.6c-8.7,2.4-8.5,7.6-4.5,9v1.8h-3.1
	c-0.2-0.3-1.2-0.9-3.3-0.9s-3,0.6-3.3,0.9h-3.1v-1.8c3.9-1.5,4.1-4.4,2.6-5h-1.9v-0.2c-2.8,0.2-5.5-1.2-6.9-3.6
	c-0.1-0.1-0.1-0.3,0-0.4c0.1,0,0.1-0.1,0.2-0.1h6.7v-0.2h1.9v-0.6H28v0.9C28,12.4,27.7,12.4,27.3,12.6z"/>
</svg>
