<svg id="e97b9899-5447-4db8-996b-5cb05f9b43f3" data-name="Ñëîé 1" xmlns="http://www.w3.org/2000/svg" viewBox="0 0 253.41 276.84"><defs><style>.f7a8e7a6-f2e5-40b9-a6de-155ba7b96319{fill:#fff;}</style></defs><path class="f7a8e7a6-f2e5-40b9-a6de-155ba7b96319" d="M188.25,271.32a39.06,39.06,0,0,0-1.55-6c-.27-.87-.55-1.75-.87-2.6a9.52,9.52,0,0,0-1.92-3.26,3.52,3.52,0,0,0-2-1.06,24.72,24.72,0,0,0-2.58-.23,48.54,48.54,0,0,1-5.77-.43c-.64-.12-1.3-.17-2-.26a17.68,17.68,0,0,1-3.12-.66,5.36,5.36,0,0,1-1.95-1.15,25.18,25.18,0,0,1-3.56-4.15c-.77-1.14-1.57-2.25-2.38-3.36-1.08-1.47-2.22-2.9-3.28-4.39-1.2-1.71-2.33-3.45-3.48-5.19a12.93,12.93,0,0,1-1.27-2.93,4.52,4.52,0,0,1-.17-1q-.07-1.06-.09-2.13a16.42,16.42,0,0,1,.14-2.89c.21-1.41.6-2.78.93-4.16a18.13,18.13,0,0,1,2.34-5.26,29.1,29.1,0,0,1,4.12-5.07,3.59,3.59,0,0,1,.48-.37l3.89-2.67a7.11,7.11,0,0,1,2.13-1.16,1,1,0,0,0,.39-.22.9.9,0,0,0,.4-.78c-.12-1.06.11-2.13-.06-3.19.07-2.08-.1-4.16-.09-6.24,0-2.64-.12-5.28-.07-7.92a27.33,27.33,0,0,0-.15-3.5,26.22,26.22,0,0,1-.16-3.19c0-1.17-.19-2.33-.06-3.5a4,4,0,0,0-.05-.6c0-.36,0-.71,0-1.07.07-2.18-.06-4.36-.1-6.55a4.09,4.09,0,0,0-.07-.6.53.53,0,0,0-.43-.37,13.74,13.74,0,0,0-1.82.05,29,29,0,0,1-5,.13c-1.88-.06-3.76,0-5.63.06-1.53,0-3,.24-4.56.27-1.07,0-2.13.05-3.2.12-1.77.11-3.54.24-5.31.38-2,.16-4,.06-5.93.3a6.91,6.91,0,0,1-.91,0H132l-8.69.07c-1.11,0-2.23.06-3.35,0-1.37-.09-2.74-.06-4.11,0l-9.44.15c-.25,0-.51,0-.76,0a68.06,68.06,0,0,0-6.85,0c-.76,0-1.52,0-2.29,0-1.06,0-2.14-.08-3.19,0-1.27.12-2.53.25-3.79.31-.87,0-1.72.14-2.59.17-2.33.09-4.66.14-7,.23-1.07,0-2.14.07-3.19.2s-2.33.14-3.49.2-2.44.07-3.66.09a40.52,40.52,0,0,1-4.41.11A5.42,5.42,0,0,0,64,176a21.57,21.57,0,0,1-3.49.32c-.91,0-1.83,0-2.74,0-2.13.1-4.26.16-6.4.07a6.27,6.27,0,0,0-1.06.05c-1.57.25-3.15.09-4.72.2-3.19-.16-6.39,0-9.59-.32-.75-.07-1.52,0-2.28-.07-.51,0-1-.08-1.52-.1-2.13-.07-4.26-.15-6.39-.2a9,9,0,0,0-1.36.15.6.6,0,0,0-.44.55c0,.81,0,1.63.12,2.43a9.37,9.37,0,0,0,.34,1.64,1.78,1.78,0,0,0,1.41,1.42c.59.13,1.16.39,1.74.56,2.49.73,5,1.47,7.4,2.35,1,.34,1.93.65,2.89,1,1.5.49,3,.93,4.49,1.47,2.14.79,4.32,1.47,6.49,2.19A11.91,11.91,0,0,0,50,190a66.09,66.09,0,0,1,7.44,2.19c.58.2,1.15.42,1.73.6a39.7,39.7,0,0,1,4.69,1.79,27.09,27.09,0,0,0,3.68,1.46,37.4,37.4,0,0,1,4,1.42c.61.25,1.2.57,1.79.86l4.51,2.2c1.88.9,3.62,2.05,5.4,3.13a16.09,16.09,0,0,1,3,2.33c1.09,1.06,2.2,2.11,3.31,3.15a4.5,4.5,0,0,0,.73.55,4.11,4.11,0,0,1,1,.89,19.81,19.81,0,0,1,1.5,1.92,3.61,3.61,0,0,0,.55.72,3,3,0,0,1,1,1.68c.22.95.6,1.83.9,2.75a8.41,8.41,0,0,1,.44,2.38,9,9,0,0,0,.13,1.37,30.72,30.72,0,0,1,.38,4.7,15.46,15.46,0,0,1-.15,2.88c-.18,1-.33,2-.5,3l-.21,1.36-.36,2.1c-.08.44-.17.89-.25,1.34a3.94,3.94,0,0,1-.09.6,43.62,43.62,0,0,1-1.49,4.15,53,53,0,0,1-3,5.28c-1.72,2.82-3.83,5.37-5.64,8.13l-.19.24a1.71,1.71,0,0,1-1.53.8c-.81,0-1.63,0-2.44,0-.56,0-1.11.06-1.67.1-1.47.11-2.93.29-4.4.3a26.69,26.69,0,0,0-3.79.34,24.27,24.27,0,0,0-2.89.92,1,1,0,0,0-.39.23,14.28,14.28,0,0,0-1.29,1.29A5.36,5.36,0,0,0,64.7,262c-.26,1.91-.49,3.83-.9,5.72a.76.76,0,0,0,0,.15c-.19,1.46-.32,2.92-.61,4.37-.13.7-.2,1.41-.29,2.11a1.42,1.42,0,0,0,0,.46.83.83,0,0,0,.19.4c.14.14.34.22.49.35A2,2,0,0,0,65,276c1.12,0,2.24,0,3.36,0,1.62,0,3.24-.21,4.86-.09,2-.19,4.06,0,6.09,0a3.39,3.39,0,0,1,1.06.13,24.85,24.85,0,0,0,3,.67,4.36,4.36,0,0,0,2.24-.06,6.17,6.17,0,0,1,1.64-.31c.91,0,1.82-.05,2.74,0a5.33,5.33,0,0,0,2.67-.4,3.1,3.1,0,0,1,1.33-.29,2.21,2.21,0,0,0,1.62-.73,4.06,4.06,0,0,1,.81-.68,4.7,4.7,0,0,0,1-.93,28.24,28.24,0,0,1,2.27-2.24,5,5,0,0,1,3.72-1.48h.3l3.65-.19c.66,0,1.32-.08,2-.09l5.49-.07,2,0c2.69.05,5.38.11,8.07-.06,1-.06,2-.09,3-.07,2,0,4,.17,5.93.17,2.18,0,4.37-.08,6.55.1h.15a62.93,62.93,0,0,1,10.17.71,3.52,3.52,0,0,1,1.68.66c.23.19.53.3.76.5,1,.92,2.22,1.6,3.31,2.43a7.3,7.3,0,0,0,1.73,1,1.71,1.71,0,0,0,.74.14c.81,0,1.62,0,2.43-.09,1.22-.09,2.44-.09,3.66-.07.4,0,.81,0,1.21,0,.71,0,1.42-.08,2.13-.09h4.42v0c.76,0,1.52,0,2.28,0,3.45-.17,6.9-.23,10.36-.15a18.43,18.43,0,0,0,2-.09,1.15,1.15,0,0,0,1.08-.92,1.84,1.84,0,0,0,.07-.9C188.42,272.12,188.31,271.72,188.25,271.32ZM159.94,196.6a2.29,2.29,0,0,1,.09.44.65.65,0,0,1-.72.6.28.28,0,0,1-.18-.2,1,1,0,0,1,.54-.94C159.82,196.44,159.91,196.48,159.94,196.6Zm-.54-12.83c0-.08.11-.15.18-.2s.21.15.21.33,0,.51,0,1c0,.11,0,.46-.08.81,0,.07-.12.14-.2.19s-.34-.1-.36-.2a1.6,1.6,0,0,1-.05-.29C159.19,184.86,159.29,184.31,159.4,183.77Zm-2.72-2.49c.12-.12.35-.11.38,0a.36.36,0,0,1-.07.26c-.05.07-.15.1-.23.15s-.18-.11-.18-.17A.35.35,0,0,1,156.68,181.28Zm-.21,30.46a1,1,0,0,1,.36-.27c.14-.09.52,0,.54.11a.68.68,0,0,1,0,.43,3.57,3.57,0,0,1-1.16,1.16.19.19,0,0,1-.15,0,.42.42,0,0,1-.12-.08c0-.05,0-.1,0-.14C156.07,212.55,156.25,212.13,156.47,211.74Zm-1.18-14.19s.17,0,.25,0,.05.08.06.12a.22.22,0,0,1,0,.14l-.46.89c-.26.38-.3.36-.3.21s0-.1,0-.14A5.31,5.31,0,0,1,155.29,197.55ZM37.36,181c-.06,0-.2,0-.27-.05a1.88,1.88,0,0,1-.32-.31.28.28,0,0,1,0-.4,1.76,1.76,0,0,1,1-.21c.06.07.18.14.17.19A1.22,1.22,0,0,1,37.36,181Zm13.39,8.2a.64.64,0,0,1-.22,0,11.18,11.18,0,0,1-2.44-.61l-5-1.75a8.25,8.25,0,0,1-1-.45.17.17,0,0,1-.07-.13s.07-.08.1-.08a5,5,0,0,1,2.51.51,10.63,10.63,0,0,0,2.58.88,16.72,16.72,0,0,1,2.9.89,8.62,8.62,0,0,1,.78.44s.06.11,0,.13A1.06,1.06,0,0,1,50.75,189.23Zm3.09-9a.15.15,0,0,1-.13,0c-.07-.1,0-.18.11-.21a.34.34,0,0,1,.14,0,.36.36,0,0,1,.1.11C54,180.15,53.92,180.21,53.84,180.24Zm2.07.07a.19.19,0,0,1-.11.09c-.18-.05-.37-.11-.55-.18s0-.08,0-.11a.13.13,0,0,1,.07-.12.62.62,0,0,1,.66.18C55.93,180.22,55.94,180.28,55.91,180.31ZM57,191.16a.64.64,0,0,1-.27-.11c-.08-.08-.29-.06-.24-.24,0,0,.18,0,.28,0a.62.62,0,0,1,.28.09c.06.05.06.16.08.24A.2.2,0,0,1,57,191.16Zm.12-7.41a1,1,0,0,1-.74-.47.43.43,0,0,1,.3-.57.87.87,0,0,1,.72.17.92.92,0,0,1,.18.31C57.58,183.53,57.34,183.78,57.12,183.75ZM60.6,180c-.13.62-.45.85-1.13.77a1.76,1.76,0,0,1-.35-.16.28.28,0,0,1-.09-.26c0-.13.1-.31.21-.37.34-.2.71-.36,1.07-.53.13-.06.3.09.3.25A1.48,1.48,0,0,1,60.6,180Zm1.8,7.57a.4.4,0,0,1-.35-.4.24.24,0,0,1,.15-.2.4.4,0,0,1,.43.47C62.55,187.45,62.47,187.54,62.4,187.53Zm1.12-3.38a1.31,1.31,0,0,1-1.1-.33.39.39,0,0,1-.1-.27c0-.07.13-.13.21-.17s.1,0,.16,0a1.11,1.11,0,0,1,.89.69S63.55,184.14,63.52,184.15Zm2.57,1.13c-.07.05-.17.13-.24.12a.92.92,0,0,1-.58-.42.18.18,0,0,1,0-.14c0-.05.05-.08.09-.12a1.48,1.48,0,0,1,.75.42S66.11,185.26,66.09,185.28Zm1.34-4.55a.15.15,0,0,1,.23.09l-.14.21a1.3,1.3,0,0,1-.15-.18S67.4,180.75,67.43,180.73Zm.1,7.78a3.55,3.55,0,0,1-.5.21c-.09-.1-.19-.15-.2-.22a.3.3,0,0,1,.11-.23,1.93,1.93,0,0,1,.4-.15c.16,0,.35.06.32.17A.36.36,0,0,1,67.53,188.51Zm2.24-4.16c-.06.06-.15.17-.21.15a7.5,7.5,0,0,1-1.15-.31c-.1,0-.18-.21-.22-.34s.1-.16.17-.22a1.28,1.28,0,0,1,.27-.11.8.8,0,0,1,.15,0,1,1,0,0,1,1,.72S69.8,184.32,69.77,184.35Zm3.9-2.09a.56.56,0,0,1-.36.21.66.66,0,0,1-.63-.32.79.79,0,0,1,0-.85.6.6,0,0,1,.68-.17.5.5,0,0,1,.38.4c0,.1,0,.2,0,.34A1.09,1.09,0,0,1,73.67,182.26Zm2,4.39a2.88,2.88,0,0,1-1.48.13c-.07,0-.14-.14-.17-.23s.08-.36.2-.36l.44,0a1.57,1.57,0,0,1,.3.05v0c.24,0,.49.06.73.11,0,0,.07.06.09.1A.17.17,0,0,1,75.62,186.65ZM79,183.88a1.89,1.89,0,0,1-.46-.34c-.09-.08,0-.3.11-.37a.49.49,0,0,1,.74.4C79.37,183.76,79.13,184,79,183.88Zm9.29-1.22c0-.09.09-.22.16-.24a3.68,3.68,0,0,1,2.07-.24.56.56,0,0,1,.37.43c0,.46-.09.71-.46.83a4.53,4.53,0,0,1-1.63.26c-.34,0-.53-.2-.54-.59A1.71,1.71,0,0,1,88.26,182.66ZM84,198.77a.58.58,0,0,1-.26,0,.19.19,0,0,1-.11-.08.65.65,0,0,1,0-.24s.08,0,.12,0a.58.58,0,0,1,.14,0C84,198.53,84.12,198.73,84,198.77Zm2.93-7.07c-.29.08-.58.13-1,.22l-.31,0a.16.16,0,0,1-.12-.08s0-.11,0-.13a1.74,1.74,0,0,1,1.36-.43c.08,0,.2.1.2.16A.29.29,0,0,1,86.94,191.7Zm1.56,5.15a.38.38,0,0,1-.39.16c-.2-.07-.41-.17-.42-.39a1.43,1.43,0,0,1,.73-1.52c.18-.08.29-.29.53-.23s.3.23.25.33A9.62,9.62,0,0,0,88.5,196.85ZM89.62,187l-.9.06v0h-1.2c-.25,0-.42-.09-.46-.28s.12-.35.35-.38a10.05,10.05,0,0,1,2.26-.1,3,3,0,0,1,1.18.13s.12.08.11.1-.08.19-.16.23A3.1,3.1,0,0,1,89.62,187Zm3.22,18a.17.17,0,0,1-.25.12,6.52,6.52,0,0,1-1.83-1.56.29.29,0,0,1,0-.27.78.78,0,0,1,.66-.31c.09,0,.2.06.25.13.39.53.78,1.06,1.15,1.61A.44.44,0,0,1,92.84,205ZM94,197.3a5.43,5.43,0,0,1-.62.83c0,.05-.19,0-.29,0A.2.2,0,0,1,93,198a4.36,4.36,0,0,0-.27-1.15c-.33-.59-.13-.84.66-.78a2.22,2.22,0,0,1,.45.1.34.34,0,0,1,.19.2A1.14,1.14,0,0,1,94,197.3ZM71.23,267.14c-.11,0-.17,0-.18-.13s.07-.1.08-.09l.19.13S71.27,267.13,71.23,267.14Zm.76,3.45a.24.24,0,0,1-.22-.08c-.07-.09,0-.19.11-.19a.55.55,0,0,1,.24.07C72.08,270.46,72.05,270.57,72,270.59Zm.89-6.8c-.08-.05-.22-.1-.22-.15a.54.54,0,0,1,.41-.55c.06,0,.2.09.2.14A.55.55,0,0,1,72.88,263.79Zm1.65-2.74c-.08.05-.14,0-.13-.1a.13.13,0,0,1,.09-.07s.05.05.07.08S74.55,261,74.53,261.05Zm2,2.84a1.06,1.06,0,0,1-.21-.11c.06,0,.11-.14.18-.15s.16.07.12.17S76.56,263.9,76.54,263.89Zm1.11-2.62c-.06.07-.14.16-.22.17a.31.31,0,0,1-.24-.13.27.27,0,0,1,.11-.38.31.31,0,0,1,.28,0c.06,0,.08.15.12.23A.29.29,0,0,1,77.65,261.27Zm7.82,12.21a.23.23,0,0,1-.23-.08c-.06-.11.14-.3.25-.26s.05.08.08.11S85.52,273.46,85.47,273.48Zm5.06-15.22a.27.27,0,0,1-.36.17c-.15-.06-.28-.18-.25-.34a1.86,1.86,0,0,1,.24-.54.28.28,0,0,1,.23-.12.48.48,0,0,1,.16.23,1.56,1.56,0,0,1,0,.31A2.54,2.54,0,0,1,90.53,258.26ZM91.62,253a.28.28,0,0,1-.5-.2,2.36,2.36,0,0,1,.68-1.28.17.17,0,0,1,.14,0s.06.07.1.13A2.09,2.09,0,0,1,91.62,253Zm5.07-10.27a4.5,4.5,0,0,1-1.15,1.58s-.1,0-.14,0-.08-.08-.08-.12a1.36,1.36,0,0,1,.06-.45c.21-.51.44-1,.69-1.52a.59.59,0,0,1,.35-.23c.13,0,.34.28.32.45A1,1,0,0,1,96.69,242.77Zm55.58,5.91c.11,0,.15.11.12.23s-.19.11-.24.08-.1-.15-.15-.23A.92.92,0,0,1,152.27,248.68Zm-2.12-57.81-.05.09,0-.09Zm-.34,48.92.09.08-.11,0Zm.14,14c-.18.4-.62.39-.93,0-.09-.1-.06-.22.07-.23a3.64,3.64,0,0,1,.74,0S149.91,253.74,150,253.82Zm-2-46.93a2.14,2.14,0,0,1,1.21-.78s.07,0,.1.08,0,.12,0,.14c-.35.25-.71.51-1.08.74-.06,0-.17,0-.26,0S147.94,206.92,148,206.89ZM147,188.42s.05.08,0,.12c-.1.26-.17.55-.54.52a.84.84,0,0,1,.26-.64C146.84,188.38,147,188.41,147,188.42Zm-.88,1.32c.11-.21.24-.41.36-.61a.89.89,0,0,1,0,.66.3.3,0,0,1-.22.16C146.16,190,146.09,189.86,146.15,189.74Zm-1.76,11.61c.41-.19.83-.35,1.25-.52.1,0,.3.13.32.26s0,.2,0,.32a2.79,2.79,0,0,1-.38,1.43c-.05.07-.19.16-.24.13-.41-.16-.82-.35-1.22-.54,0,0-.06-.08-.08-.12A1,1,0,0,1,144.39,201.35Zm-.49,25.21.15-1a.52.52,0,0,1,.06-.67.46.46,0,0,1,.26-.1c.13,0,.22.16.17.33s-.15.47-.48.42l-.15,1a1.28,1.28,0,0,1-.41,1.08.41.41,0,0,1-.27,0s-.06-.07-.07-.11a.38.38,0,0,1,0-.15C143.23,226.94,143.42,226.61,143.9,226.56Zm.38,24.33-.07.05.08-.07Zm0,.59.07,0-.07.08Zm-2.34-1.85,0,0-.07,0Zm-1.65-60a.17.17,0,0,1,.14,0s.09.07.09.11a.54.54,0,0,1-.3.61.22.22,0,0,1-.14,0s-.09-.07-.09-.1A.92.92,0,0,1,140.28,189.58Zm-5.34,1.65a.5.5,0,0,1,.13,0c.17.05.2.19.22.32a.26.26,0,0,1-.18.33.19.19,0,0,1-.15,0A.37.37,0,0,1,134.94,191.23Zm-.17,4.69a.25.25,0,0,1,.2.14.3.3,0,0,1-.11.25c-.11.07-.31-.11-.3-.25S134.7,195.92,134.77,195.92Zm-1.64,25.33a.43.43,0,0,1-.22.48l-.14,0-.29,0a.88.88,0,0,1-.29,0c-.07,0-.11-.13-.15-.2s0-.09,0-.13a1,1,0,0,1,.61-.36C132.9,221,133.09,221.06,133.13,221.25Zm-.6-7.12a1.79,1.79,0,0,1,.12.24.55.55,0,0,1-.42.53.26.26,0,0,1-.25-.06.27.27,0,0,1-.09-.25.79.79,0,0,1,.5-.49S132.51,214.1,132.53,214.13Zm-.67-25.76a.82.82,0,0,1,.41,0c.06,0,.1.13.12.21a.13.13,0,0,1-.06.11,2.76,2.76,0,0,1-.27.08l-.26-.1s-.08-.09-.07-.12S131.8,188.38,131.86,188.37Zm-.65-8.26,0,.09-.1,0Zm-1,12.1a.53.53,0,0,1,.65-.11.31.31,0,0,1,.08.11c.05.11,0,.19-.1.22l-.28,0-.28,0a.17.17,0,0,1-.1-.1A.16.16,0,0,1,130.21,192.21Zm.88,13.14a1.08,1.08,0,0,1,.36.24c.06.06.06.18.07.27s-.07.06-.11.09-.1.05-.14,0a11.66,11.66,0,0,1-3.11-1,.2.2,0,0,1,0-.13c.06-.06.15-.14.21-.13.5.08,1,.16,1.47.27S130.66,205.22,131.09,205.35Zm-.6,33.7c0,.09,0,.19-.1.24s-.19,0-.2-.1a1.36,1.36,0,0,1,.07-.25ZM127,212.59c-.06,0-.26-.13-.26-.26a.41.41,0,0,1,.07-.27,2.61,2.61,0,0,1,1.3-.71c.14,0,.36,0,.39.14a.41.41,0,0,1-.15.4A2.09,2.09,0,0,1,127,212.59Zm.89,32.31c-.07.07-.12.16-.2.19a.13.13,0,0,1-.18-.14.49.49,0,0,1,.15-.23c.08-.09.18-.07.24,0S127.88,244.85,127.88,244.9Zm-2.55-64.29a1.11,1.11,0,0,1,.7-.25h1.51v-.08l1.66.08c.12,0,.13,0,0,.11a.67.67,0,0,1-.12.06c-1.09.21-2.18.44-3.28.55a1.13,1.13,0,0,1-.45,0,.28.28,0,0,1-.17-.21A.33.33,0,0,1,125.33,180.61Zm.09,4a.58.58,0,0,1,.14,0,.14.14,0,0,1,0,.11c-.1.14-.24.1-.37.07s0-.06-.06-.1ZM123.65,195a.83.83,0,0,1,.5-.32c.24,0,.49,0,.72-.07l.92.15s.11.07.1.08-.07.21-.15.25a5.61,5.61,0,0,1-1.9.44.47.47,0,0,1-.25-.13C123.51,195.29,123.56,195.06,123.65,195Zm.79,35.16,0,.09-.08-.07Zm-3.66,9.56s0-.11,0-.13l.65-.35a.17.17,0,0,1,.13,0,.15.15,0,0,1,0,.13.92.92,0,0,1-.75.42C120.78,239.78,120.75,239.75,120.78,239.67Zm-2.1,3.69c.06,0,.11.12.17.18a.32.32,0,0,1-.35.19.13.13,0,0,1-.09-.1A.26.26,0,0,1,118.68,243.36Zm-1.39-41.8a3.42,3.42,0,0,1,.43-.42.32.32,0,0,1,.5.15,1.4,1.4,0,0,1,.09.29.32.32,0,0,1-.21.35.42.42,0,0,1-.15,0h-.35a.2.2,0,0,1-.1,0c-.09,0-.22-.06-.26-.13A.33.33,0,0,1,117.29,201.56Zm-2,42.32a1.12,1.12,0,0,1,.13.24c-.07.06-.14.15-.21.16s-.21-.09-.2-.13a.45.45,0,0,1,.14-.25A.14.14,0,0,1,115.28,243.88Zm-.75-39.12a.53.53,0,0,1,.65.2.49.49,0,0,1,0,.14s0,.09-.08.11c-.33.18-.61.09-.71-.23A.24.24,0,0,1,114.53,204.76ZM114,192a1.48,1.48,0,0,1,.41.05s0,.07,0,.14a1.61,1.61,0,0,1-.39.12c-.06,0-.14-.09-.21-.14S113.89,192,114,192Zm-.54,23.44a3.64,3.64,0,0,1,.57,0c.12,0,.15.11.12.21s0,.1-.09.12a.52.52,0,0,1-.66-.06.37.37,0,0,1,0-.24S113.38,215.42,113.42,215.42Zm-.8-27.55a.26.26,0,0,1,.11.22c0,.07-.16.09-.25.13s-.18-.1-.18-.16S112.48,187.81,112.62,187.87Zm-.88-10.26a1.51,1.51,0,0,1,.3,0,1.09,1.09,0,0,1,.27.11c.07.07-.12.17-.35.17a.68.68,0,0,1-.15,0,1.46,1.46,0,0,1-.19-.16A.42.42,0,0,1,111.74,177.61Zm-.37,19.67.68-.17c.12.1.23.15.25.22a.67.67,0,0,1-.37.6.57.57,0,0,1-.67-.16A.31.31,0,0,1,111.37,197.28Zm-.79,52.43a3.05,3.05,0,0,1-1.26.77c-.13.05-.29-.11-.28-.27V250a5.18,5.18,0,0,1,.13-.54.54.54,0,0,1,.68-.4l.58.16A.3.3,0,0,1,110.58,249.71Zm-.18-44.5Zm0,0s.06,0,0,0ZM109.09,241a.46.46,0,0,1,.17-.24,1,1,0,0,1,1.11.15.56.56,0,0,1,0,.57,1.78,1.78,0,0,1-.83.63.39.39,0,0,1-.5-.21c0-.15,0-.3-.07-.45A3.25,3.25,0,0,1,109.09,241Zm-.4-19.6c.08,0,.19.13.19.21a.28.28,0,0,1-.14.24c-.4.18-.82.36-1.24.5a1.12,1.12,0,0,1-.44,0,.39.39,0,0,1-.28-.46c.14-.44.45-.67,1.09-.66C108,221.26,108.36,221.33,108.69,221.43Zm-.2,16.35a.28.28,0,0,1-.14.22,2.91,2.91,0,0,1-.58.09c-.26,0-.5-.22-.39-.33a1.3,1.3,0,0,1,.34-.21.81.81,0,0,1,.2,0,2.32,2.32,0,0,1,.39.07A.27.27,0,0,1,108.49,237.78Zm-3.17-53.26,1.21-.15c.27,0,.57,0,.87,0a.44.44,0,0,1,.32.67.65.65,0,0,1-.4.41,8.62,8.62,0,0,1-1.33.16,1,1,0,0,1-.87-.51A.39.39,0,0,1,105.32,184.52Zm0,56.94,0,0v0Zm0,0a1.88,1.88,0,0,1,.25-.24c.11-.08.19,0,.19.09a.13.13,0,0,1-.06.12C105.6,241.51,105.46,241.45,105.33,241.43Zm.18,9c.12-.26.25-.52.38-.77,0,0,.09,0,.13,0s.06.06.1.1a1.12,1.12,0,0,1-.27.79.32.32,0,0,1-.24.11C105.5,250.64,105.46,250.53,105.51,250.42Zm-2.36-1.4h0l-.06-.05Zm0,0c-.05,0-.13.09-.18.15s-.16.11-.21,0a.18.18,0,0,1,0-.13.17.17,0,0,1,.12-.06A.85.85,0,0,1,103.12,249.05ZM103,237.49a1.22,1.22,0,0,1-.33.27.91.91,0,0,1-.28-.12.65.65,0,0,1-.14-.26.31.31,0,0,1,.28-.42,1,1,0,0,1,.3,0c.09,0,.25.08.25.13A.69.69,0,0,1,103,237.49ZM102.5,192a.68.68,0,0,1,.52.66c0,.25-.27.52-.48.48a3.76,3.76,0,0,1-1.51-.64.32.32,0,0,1-.06-.27.39.39,0,0,1,.19-.21A2.44,2.44,0,0,1,102.5,192Zm-.94,59.45c0-.06,0-.12,0-.18a.25.25,0,0,1,0-.13c.1-.08.15,0,.11.09A.85.85,0,0,1,101.56,251.43Zm-.06.1a4.24,4.24,0,0,1-.31.4.18.18,0,0,1-.13,0c-.1-.06-.09-.14,0-.24A.73.73,0,0,1,101.5,251.53Zm-.55-66c.08,0,.15.09.23.15-.08.05-.16.14-.23.14s-.16-.1-.24-.15C100.79,185.61,100.87,185.52,101,185.52Zm-2.18,17a.16.16,0,0,1,.23-.13,1.23,1.23,0,0,1,.25.14.35.35,0,0,1,.13.39.34.34,0,0,1-.36.18c-.18,0-.25-.14-.27-.29A.7.7,0,0,1,98.77,202.55Zm-.66,53.74a.84.84,0,0,1,.06-.14c0-.11.27-.22.37-.14a.36.36,0,0,1,.15.23,1.13,1.13,0,0,1-.28.82c-.07.1-.15.15-.25.1a.24.24,0,0,1-.07-.12,3.11,3.11,0,0,1,0-.34C98.08,256.59,98.09,256.44,98.11,256.29Zm-.84-16.91.07-.08,0,.1Zm.52-28.2s-.11,0-.13,0a2.45,2.45,0,0,1-.54-1s.11-.11.2-.19a1.52,1.52,0,0,1,.34.22A1.2,1.2,0,0,1,98,211C98,211,97.85,211.12,97.79,211.18Zm2.76,57.9a1.38,1.38,0,0,1-.73.5.64.64,0,0,1-.28,0,2.34,2.34,0,0,1,.09-.24s.07-.06.34-.28c0,0,.16-.13.37-.26s.21,0,.24.12A.18.18,0,0,1,100.55,269.08Zm7.12-7.95a.51.51,0,0,1-.52.24c-.06-.05-.19-.11-.19-.17,0-.28.41-.48.68-.33C107.74,260.92,107.74,261,107.67,261.13Zm4.51.53a.15.15,0,0,1-.1-.08s0-.09,0-.09h.25s0,.07,0,.1Zm6.46,6.69h-2.58v-.05c-.45,0-.91.07-1.36.07s-.81,0-1.21-.06c0,0-.1-.07-.09-.08s.07-.2.14-.23a.86.86,0,0,1,.44-.1,25.26,25.26,0,0,0,4.08,0,2.36,2.36,0,0,1,.59.11.17.17,0,0,1,.1.1C118.8,268.25,118.76,268.35,118.64,268.35Zm-4.11-9.67a.7.7,0,0,1,.57-.76,1.19,1.19,0,0,1,.72-.07c.05,0,.12,0,.12.08s0,.22,0,.27q-.49.44-1,.84c-.06,0-.2.08-.24,0s-.09-.16-.12-.26A.61.61,0,0,1,114.53,258.68Zm8.9,2.27a.64.64,0,0,1-.69.07s-.07-.08-.06-.1a.69.69,0,0,1,.75-.33s.06.07.09.11S123.49,260.9,123.43,261Zm1.15,4.07c-.08,0-.15-.09-.23-.14.07-.05.14-.15.22-.15s.15.09.23.14S124.65,265,124.58,265Zm6-8.18a3.53,3.53,0,0,1-.51.1l-.65-.2a.12.12,0,0,1,0-.11.23.23,0,0,1,.09-.12,1.47,1.47,0,0,1,1.18,0,.37.37,0,0,1,.11.1C130.7,256.72,130.65,256.82,130.58,256.84Zm15.25,6.21a.42.42,0,0,1-.27,0,.57.57,0,0,1-.22-.19s0-.09,0-.12.07-.06.11-.09a1,1,0,0,1,.26.07C145.87,262.78,145.93,263,145.83,263.05Zm3.1,2.47c-.06,0-.1-.14-.13-.22s.08-.09.09-.09l.2.16C149.1,265.49,149,265.56,148.93,265.52Zm4.82-1.12a.36.36,0,0,1-.43,0c-.53-.38-1.08-.75-1.58-1.17a10.29,10.29,0,0,0-2.14-1.44,5,5,0,0,1-.89-.58c-1.06-.78-2.11-1.58-3.18-2.36A13.88,13.88,0,0,0,142,257.1c-1.14-.42-2.3-.81-3.43-1.25a39.12,39.12,0,0,0-5-1.39,21.91,21.91,0,0,0-5.28-.63,6.32,6.32,0,0,1-.76-.06,6.16,6.16,0,0,0-2.42.15,4.86,4.86,0,0,1-1.2.14c-1,0-2,0-3.05.07-.25,0-.51,0-.76.05l-4.22.55a6.78,6.78,0,0,0-.9.16c-1.32.36-2.65.69-4,1.1a24.89,24.89,0,0,0-4.47,1.92,34.41,34.41,0,0,0-5.15,3.51c-1,.8-2,1.52-3,2.27-.15.11-.43-.06-.45-.26a1.5,1.5,0,0,1,0-.3,1.33,1.33,0,0,1,.1-.28,4.9,4.9,0,0,1,1-1.37,18,18,0,0,1,3.34-2.88c.47-.28.87-.68,1.33-1s.78-.47,1.17-.71a3.81,3.81,0,0,0,.62-.43,12.4,12.4,0,0,1,3.34-2.08,6.09,6.09,0,0,0,.8-.42c.71-.49,1.39-1,2.11-1.49a9.61,9.61,0,0,1,3.18-1.43,8.25,8.25,0,0,0,1.31-.39,9.72,9.72,0,0,1,3.89-.58l1.66-.15c.2,0,.41-.06.61-.06a32.71,32.71,0,0,0,5.58-.67,5.21,5.21,0,0,1,2.26.06c1.13.29,2.26.59,3.38.92a31.48,31.48,0,0,1,3.24,1.33l1.25.54c.33.13.67.24,1,.4q1.84.92,3.66,1.86a6.7,6.7,0,0,1,2,1.58,19.29,19.29,0,0,0,4.18,3.52,5.51,5.51,0,0,1,1.66,1.53,16.21,16.21,0,0,0,1.49,1.73,4.4,4.4,0,0,0,.73.53,3.32,3.32,0,0,1,.91.8C153.81,264.11,153.84,264.33,153.75,264.4Zm2-4.28c-.13,0-.17-.07-.09-.15a.15.15,0,0,1,.13,0,.3.3,0,0,1,.07.11S155.81,260.12,155.78,260.12Zm21,10.43a.17.17,0,0,1-.12,0c-.09-.1-.06-.16.07-.16s.07.05.1.07S176.84,270.54,176.81,270.55Zm4.15-6.72c-.14,0-.29.05-.38.07-.27,0-.46-.08-.54-.28a.68.68,0,0,1,.06-.7.34.34,0,0,1,.24-.11,1.09,1.09,0,0,1,.82.57A.3.3,0,0,1,181,263.83Z"/><path class="f7a8e7a6-f2e5-40b9-a6de-155ba7b96319" d="M244.87,166.1a5.35,5.35,0,0,0-2.11-.14,9.8,9.8,0,0,1-1.21,0c-.41,0-.82,0-1.22,0l-4.68.63a33.92,33.92,0,0,0-3.46.5,3.53,3.53,0,0,1-.46,0c-.55,0-1.12,0-1.66.12-1.55.25-3.13.32-4.66.71a9.77,9.77,0,0,1-1.21.16,5.44,5.44,0,0,0-.9.14,7.82,7.82,0,0,1-1.91.29q-5.89-2.56-11.81-5.1c-1-.43-2-.85-3-1.23a4.1,4.1,0,0,0-1.34-.27,1.36,1.36,0,0,0-.79.36,1,1,0,0,0-.08,1.26,3.33,3.33,0,0,0,1,.85,51.19,51.19,0,0,1,7.19,3.18,26.59,26.59,0,0,0,3.19,1.4l-.35,0a17.24,17.24,0,0,0-2.87.29c-1.57,0-3.14.16-4.7.32-.15,0-.3,0-.46,0-1.46.07-2.94.12-4.4.25a49.36,49.36,0,0,1-5,.32c-1.62,0-3.25,0-4.87-.14-.6-.07-1.21,0-1.82-.06h-.95c-5.61-4.32-11.3-8.53-17.16-12.51a5.26,5.26,0,0,0-.84-.34,1.4,1.4,0,0,0-1.55.69.94.94,0,0,0,.27,1.24c1.32,1,2.68,2.07,4.06,3,2.26,1.6,4.58,3.13,6.84,4.74l4.29,3.1a8.11,8.11,0,0,1-2.25-.21c-.05,0-.1,0-.16,0a.64.64,0,0,0-.54.45,3.39,3.39,0,0,0,0,.45c0,1,.07,1.94,0,2.89a39.5,39.5,0,0,0,0,5.33c.09,1.67.14,3.35.18,5,.05,2.18.13,4.36.22,6.54.11,2.33.07,4.67,0,7,0,1.11-.14,2.22-.21,3.33h0c0,.77,0,1.53,0,2.29a.87.87,0,0,0,.33.65,1.29,1.29,0,0,0,1.11.38l1.51-.23c.85-.13,1.7-.31,2.55-.4s1.71-.23,2.56-.4c1.24-.25,2.49-.46,3.73-.73.9-.19,1.77-.48,2.66-.66,2.14-.45,4.25-1,6.33-1.66l4.8-1.5c.29-.09.57-.2.86-.3.62-.23,1.23-.46,1.86-.67a19.59,19.59,0,0,0,2.83-1.12c1.39-.73,2.79-1.45,4.18-2.19s2.69-1.42,4-2.2a25.44,25.44,0,0,0,3.55-2.36,37.52,37.52,0,0,0,3.16-2.62,1.1,1.1,0,0,1,.25-.17l2.48-1.76a4,4,0,0,0,.7-.59,23.11,23.11,0,0,1,2.13-1.95,7,7,0,0,0,1.67-1.75,5.74,5.74,0,0,1,.41-.45c.75-.9,1.68-1.63,2.36-2.59a2.49,2.49,0,0,1,.56-.51,4,4,0,0,0,1.1-1.24,12.57,12.57,0,0,1,.73-1.16,9.9,9.9,0,0,1,1.09-1.46,52.08,52.08,0,0,0,3.65-4.48,1.25,1.25,0,0,0,.09-1.43A2.61,2.61,0,0,0,244.87,166.1Zm-48.6,16.23s-.06.06-.09.06-.14-.06-.08-.14a.11.11,0,0,1,.11,0S196.25,182.3,196.27,182.33Zm-.19-8.56s.08,0,.1.09a.17.17,0,0,1-.07.25c-.07-.06-.17-.11-.19-.18S196,173.75,196.08,173.77Zm-8.28.82a.43.43,0,0,1-.53.3.18.18,0,0,1-.08-.11.29.29,0,0,1,.18-.35.35.35,0,0,1,.39,0S187.79,174.54,187.8,174.59Zm-.44,5.16s-.08,0-.13,0-.09,0-.1-.08a1.64,1.64,0,0,1,0-1.32.35.35,0,0,1,.23-.18,6.36,6.36,0,0,1,.72-.12,1.26,1.26,0,0,1,.24.19s0,.11,0,.12A4,4,0,0,0,187.36,179.75Zm.81,13.53a.38.38,0,0,1-.1-.26.13.13,0,0,1,.22-.09c.07.06.08.17.12.25S188.26,193.35,188.17,193.28Zm3.49,8.72a1.23,1.23,0,0,1-.78.27l-.29-.15a1.46,1.46,0,0,1,.17-.24,1,1,0,0,1,.83-.2s.12,0,.12.08A.37.37,0,0,1,191.66,202Zm1.12-7.56a.31.31,0,0,1-.22-.16c-.06-.09,0-.18.12-.22h.15c.12,0,.19.1.15.2S192.85,194.43,192.78,194.44Zm2.09-6a.26.26,0,0,1-.23.13.31.31,0,0,1-.21-.15,1.89,1.89,0,0,1-.12-1.15c0-.06.14-.14.22-.15a.35.35,0,0,1,.26.07c.19.19.21.43.21.82A2.82,2.82,0,0,1,194.87,188.43Zm.58,12.83-.11-.06.11,0Zm.68-3.79c-.23.08-.48.13-.58.16-.38,0-.52-.21-.45-.42.13-.37.38-.5.7-.34a2.2,2.2,0,0,1,.38.24s.1.09.09.12S196.2,197.44,196.13,197.47Zm3.31-.85a1,1,0,0,1,0-.24.22.22,0,0,1,.1-.09c.12,0,.16.07.14.18Zm3.35-8.47a.12.12,0,0,1-.09-.08,2,2,0,0,1,0-.42c0-.3.22-.38.48-.37-.08.28-.15.55-.24.82A.13.13,0,0,1,202.79,188.15Zm.38-.88c-.06-.24-.13-.47-.18-.7,0,0,0-.12,0-.14s.16,0,.16.1S203.17,187,203.17,187.27Zm.92-13.31a.27.27,0,0,1-.15-.21.26.26,0,0,1,.34-.2.31.31,0,0,1,.15.22A.25.25,0,0,1,204.09,174Zm2.2,11.43a.26.26,0,0,1-.24,0,.31.31,0,0,1-.05-.25.34.34,0,0,1,.2-.17.39.39,0,0,1,.24.07s0,.08,0,.13S206.36,185.35,206.29,185.39Zm5.4-6.18a.28.28,0,0,1-.23.14.3.3,0,0,1-.24-.12,4.74,4.74,0,0,1-.17-.57,5.71,5.71,0,0,1,.19-.71.54.54,0,0,1,.48-.28c.12,0,.32.16.3.27C211.92,178.37,211.82,178.79,211.69,179.21Zm13.49,2.26c0,.08-.05.15-.08.22A.58.58,0,0,1,225.18,181.47Zm-2.48-8.57c-.11,0-.13-.13-.13-.25a.76.76,0,0,1,.68-.71,4,4,0,0,1,.6,0v0l.44,0s.1.06.1.1,0,.24,0,.26l-1.52.64S222.75,172.92,222.7,172.9Zm1.21,10.22a.11.11,0,0,1-.11,0s-.06-.09,0-.12a1.2,1.2,0,0,1,.78-.71A1.38,1.38,0,0,1,223.91,183.12Zm4.08-9a.67.67,0,0,1-.25.16.34.34,0,0,1-.39-.17.38.38,0,0,1,0-.15.35.35,0,0,1,.62,0A.2.2,0,0,1,228,174.11Zm5.49-3.29c-.41.13-.84.26-1.26.36-.07,0-.19-.06-.25-.12s0-.3.11-.37a1.35,1.35,0,0,1,.39-.21,6.8,6.8,0,0,1,.68-.11,2.71,2.71,0,0,1,.33.1s.09.07.08.1S233.53,170.8,233.48,170.82Zm2.19,4.51a.22.22,0,0,1-.33-.12.28.28,0,0,1,.16-.34.22.22,0,0,1,.28.23A.3.3,0,0,1,235.67,175.33Zm.32-4.69c-.05,0-.12-.1-.18-.16s.12-.14.19-.15.12.09.18.14S236.06,170.63,236,170.64Z"/><path class="f7a8e7a6-f2e5-40b9-a6de-155ba7b96319" d="M89.84,169.06V169S89.83,169,89.84,169.06Z"/><path class="f7a8e7a6-f2e5-40b9-a6de-155ba7b96319" d="M25.16,173.52c.81,0,1.63,0,2.44,0,1.22,0,2.43-.09,3.65-.13.91,0,1.83,0,2.74-.05,3.5-.1,7-.12,10.51-.06,1.62,0,3.25,0,4.87,0a19.26,19.26,0,0,1,2.74.07,10.53,10.53,0,0,0,2.57,0,14.55,14.55,0,0,1,2,0c1.37,0,2.74.08,4.11.06s2.74,0,4.11,0c1.77-.08,3.55,0,5.33-.07v0c.35,0,.71,0,1.06,0C74.16,173,77.06,173,80,173c2,0,4.07,0,6.09-.12s4.06-.21,6.09-.21,4.06,0,6.09,0c.25,0,.51,0,.76,0,2.28-.14,4.56-.27,6.84-.28.66,0,1.32,0,2,0,3.81-.1,7.62-.21,11.43-.11.5,0,1,0,1.52,0,2.89,0,5.78-.2,8.67-.36,1.47-.08,2.94-.18,4.41-.18,3.2,0,6.4-.07,9.59-.26.36,0,.71,0,1.07,0l1.83,0c1,0,1.92,0,2.89,0,2.08,0,4.16,0,6.24,0,2.54-.06,5.08-.18,7.61-.25a14.74,14.74,0,0,1,2.74-.05,1.65,1.65,0,0,0,.3,0,.76.76,0,0,0,.52-.51,10.15,10.15,0,0,1,.36-2.25.75.75,0,0,0,0-.3c0-.24,0-.49,0-.73H167l-.05-.06c0-.39,0-.78-.07-1.17a2.63,2.63,0,0,0-.28-.86,1.1,1.1,0,0,0-.69-.57,2.33,2.33,0,0,0-.44-.1l-1.26-.13c-2.34-2.42-4.68-4.85-7-7.25a4.41,4.41,0,0,0-1.15-.73c-.63-.33-1.8.26-1.8.94,0,.43.08,1,.37,1.25a51.64,51.64,0,0,1,6.08,5.75,19.47,19.47,0,0,0-3.41.14,13.25,13.25,0,0,1-1.67.09,28,28,0,0,0-3.42.16L150.65,162c-.08-.12-.2-.22-.29-.34a1.5,1.5,0,0,0-1.67-.35,1.39,1.39,0,0,0-.45,1.62l1.24,1.91L147,165c-1.63,0-3.25.09-4.88.1-1.31,0-2.63-.08-4-.07-2.29,0-4.57,0-6.86.08-1.93,0-3.86.12-5.79.07s-4,.24-5.92.09a1.65,1.65,0,0,0-.31,0,12.36,12.36,0,0,1-1.36,0,17.42,17.42,0,0,0-2.89,0c-.46,0-.92,0-1.37,0l-3.66,0-2.28,0c-.71,0-1.42-.07-2.13,0s-1.5-.2-2.27-.18H103c-.72,0-1.44.06-2.17.06.36-.48.72-1,1.07-1.43.16-.22.11-.59.16-.89a1.31,1.31,0,0,0-1.54-1.28,2,2,0,0,0-1.5,1,24.75,24.75,0,0,1-1.39,2.59c-1.56,0-3.12,0-4.68,0-.86,0-1.72,0-2.58-.08h-.18c1.76-1.95,3.54-3.89,5.36-5.8a7.49,7.49,0,0,0,.77-1.13,1.34,1.34,0,0,0-.59-1.59,1.67,1.67,0,0,0-1.28,0,5.47,5.47,0,0,0-1.32,1.27c-2.09,2.43-4.14,4.88-6.24,7.3-.87,0-1.74,0-2.61,0a33.64,33.64,0,0,0-4.26,0c-.31,0-.61,0-.92,0l-5.48,0c-.51,0-1,0-1.52,0a15.61,15.61,0,0,0-3.48.33,10.34,10.34,0,0,1-2.7.42c-2.13.07-4.26.09-6.4.13l-1.52,0a35.9,35.9,0,0,1-4.4.08,9,9,0,0,0-1.37.06c-.25,0-.5.05-.76.05l-6.09.05c-.3,0-.61,0-.91,0-2.38-.2-4.77-.2-7.16-.2a55,55,0,0,0-6.54.28,13.85,13.85,0,0,1-2.88,0,8.68,8.68,0,0,0-3.74.56,1.14,1.14,0,0,0-.66.6,4.69,4.69,0,0,0-.41,2.81,2.74,2.74,0,0,1,.1,1c-.23.87.22,1.32.85,1.74A2.06,2.06,0,0,0,25.16,173.52ZM160,167a3.15,3.15,0,0,1,.75,0c.7.09,1.4.2,2.09.31,0,0,.07.06.14.13a14,14,0,0,1-2.89,0,.27.27,0,0,1-.13-.07.21.21,0,0,1-.08-.11A.16.16,0,0,1,160,167Zm-36.91,1.11c.07,0,.13.1.19.14l-.07.08-.2-.14Zm-4.66-.24c.26-.2.57-.09.92-.13a6.51,6.51,0,0,1,.68.08.24.24,0,0,1,.16.2.5.5,0,0,1-.1.26.21.21,0,0,1-.12.08,1.74,1.74,0,0,1-1.55-.24s0-.09,0-.14A.14.14,0,0,1,118.39,167.88Zm-2.51-.08c.09,0,.22.09.24.15a.38.38,0,0,1-.11.27.28.28,0,0,1-.39.05.3.3,0,0,1-.08-.27A.29.29,0,0,1,115.88,167.8Zm-9,1.12s0-.1.08-.13a1.26,1.26,0,0,1,2,.16.35.35,0,0,1,0,.28.31.31,0,0,1-.2.19c-.24,0-.49,0-.76,0a2.71,2.71,0,0,1-1-.11A.34.34,0,0,1,106.84,168.92Zm-5.94,2.73-.11.08s-.1,0-.11,0,0-.15.13-.12S100.87,171.62,100.9,171.65Zm-11.06-2.52c0,.41-.26.59-.72.5a.31.31,0,0,1-.3-.27l-.09-.88a.42.42,0,0,1,.43-.48,1,1,0,0,1,.3,0,.42.42,0,0,1,.38.38v.74Zm-8.77-.85a.4.4,0,0,1,.53.05,2.21,2.21,0,0,1,.12.27c.26.81.36,1.2-.8,1.16a3.83,3.83,0,0,1-.58-.07c-.07,0-.17-.18-.15-.21C80.47,169.07,80.77,168.67,81.07,168.28Zm-5.4-.16a1.45,1.45,0,0,1,.3-.05l.3,0c.29,0,.45.17.42.33s-.21.3-.45.24a3,3,0,0,1-.58-.18c-.08,0-.13-.13-.2-.19A1.12,1.12,0,0,1,75.67,168.12Zm-3,.24,1-.17a.28.28,0,0,1,.31.25.35.35,0,0,1-.29.29,2.85,2.85,0,0,1-.46.1,3.87,3.87,0,0,1-.56-.15c-.06,0-.09-.14-.11-.22S72.61,168.37,72.65,168.36Zm-5,2.62a1.6,1.6,0,0,1,.32,0s.1.07.09.08-.09.17-.16.2a.45.45,0,0,1-.28,0c-.09,0-.24-.09-.24-.14C67.42,170.92,67.61,171,67.69,171Zm-37.8-.3a.2.2,0,0,1,.08-.12,1.35,1.35,0,0,0,.38-1.49.27.27,0,0,1,.23-.33c.3-.07.63,0,.62.23a5.11,5.11,0,0,0,.33,1.44.46.46,0,0,1-.24.49,2.69,2.69,0,0,1-1.13.21c-.12-.06-.24-.08-.29-.15S29.87,170.77,29.89,170.68Z"/><path class="f7a8e7a6-f2e5-40b9-a6de-155ba7b96319" d="M180.68,171.74a10.4,10.4,0,0,0-.11-1.37,1.1,1.1,0,0,0-.87-1c-1.28-.32-2.55-.65-3.84-.95-1.68-.39-3.36-.75-5.05-1.13a1.11,1.11,0,0,0-.74,0l-.56.23a.57.57,0,0,0-.37.44A3.8,3.8,0,0,0,169,170a2.42,2.42,0,0,1,.05.76c-.09,2.29.16,4.56.16,6.85,0,2.94.14,5.88,0,8.82,0,.56,0,1.12,0,1.68,0,.35.06.71.07,1.06.06,2.49.12,5,.19,7.46,0,1.37.14,2.73.19,4.1.07,1.73.14,3.45.17,5.17,0,1.35.49,1.31,1.53,1.24a2.43,2.43,0,0,0,.73-.21,11,11,0,0,1,3.4-.72,1.49,1.49,0,0,0,.73-.18,7.5,7.5,0,0,1,2.29-.79c.64-.16,1.26-.37,1.89-.59A.89.89,0,0,0,181,204a6.58,6.58,0,0,0,.14-.75,14.65,14.65,0,0,0,0-2.73c0-.71-.13-1.42-.15-2.13-.09-3.8-.16-7.61-.24-11.41h0c0-.26,0-.51,0-.76,0-1.22-.1-2.44-.1-3.66,0-1.82.06-3.65.06-5.47S180.72,173.51,180.68,171.74Zm-9.39,34,.12-.06v.13Zm1-32.09c.08-.1.15-.07.17.08s0,.08-.07.12-.09,0-.1,0S172.21,173.72,172.24,173.69Zm1.23,16.6c-.09.1-.31.16-.38.08s-.13-.17-.12-.25a4.51,4.51,0,0,1,.12-.72c0-.06.14-.1.22-.15s.41.22.4.36A1,1,0,0,1,173.47,190.29Zm-.28-4.19s.05-.07.07-.1.09,0,.11.06a.17.17,0,0,1,0,.12C173.25,186.27,173.19,186.24,173.19,186.1Zm.8-7.47s0,.1-.07.13a2.59,2.59,0,0,1-1.21.53c-.06,0-.18-.11-.21-.19s-.13-.48-.18-.67.08-.35.12-.49a.53.53,0,0,1,.42-.37,1.78,1.78,0,0,1,.88.14A.72.72,0,0,1,174,178.63Zm1.23,5.77s-.12,0-.13,0a4.47,4.47,0,0,1-.4-.6c0-.05.08-.16.12-.24s.21,0,.27.06a.82.82,0,0,1,.23.67A.21.21,0,0,1,175.22,184.4Z"/><path class="f7a8e7a6-f2e5-40b9-a6de-155ba7b96319" d="M115.71,103a3.55,3.55,0,0,0-.67-.62,2,2,0,0,0-2.54-.05,5.72,5.72,0,0,0-.49.37l-3.16,2.63-4.35,3.58c-.82.67-1.68,1.31-2.47,2-1.28,1.15-2.44,2.44-3.82,3.49a60,60,0,0,1-4.7,4.32c-.58.52-1,1.12-1.56,1.67a1,1,0,0,0-.23.86,3.14,3.14,0,0,0,.59,1.54c.66.84,1.3,1.69,2,2.53a4.37,4.37,0,0,0,.64.65,10.2,10.2,0,0,1,1.55,1.67c1,1.26,2,2.56,3,3.83,1.36,1.7,2.71,3.42,4.11,5.09,1,1.24,2.1,2.48,3.1,3.76,2,2.52,4,5,6.19,7.33,1.36,1.44,2.69,2.91,4,4.38s2.42,2.74,3.64,4.1c.26.3.57.57.86.85s.53.48.78.74c1.1,1.11,2.17,2.27,3.16,3.49a2.89,2.89,0,0,0,.91.8,1.15,1.15,0,0,0,.58.09,2.45,2.45,0,0,0,1.46-.76c.67-.62,1.32-1.26,2-1.86,1-.9,2.12-1.74,3.13-2.67a30.44,30.44,0,0,0,3.14-2.87,5.68,5.68,0,0,1,.68-.61l2.42-2.09c.77-.66,1.54-1.33,2.33-2,1.62-1.3,3.27-2.58,4.9-3.87.28-.22.55-.45.82-.68a2.16,2.16,0,0,0,.7-2.08,6.12,6.12,0,0,0-.81-2.28,22.94,22.94,0,0,0-1.44-2c-1.12-1.31-2.26-2.61-3.44-3.87-.83-.88-1.58-1.85-2.44-2.71-1.14-1.15-2.2-2.39-3.29-3.6-.24-.26-.49-.51-.72-.78-.77-.88-1.56-1.74-2.29-2.65-1.79-2.21-3.55-4.44-5.18-6.49-.75-.86-1.34-1.56-2-2.24-1.35-1.51-2.5-3.2-3.93-4.65a1.65,1.65,0,0,1-.28-.36,36,36,0,0,0-3-3.67C118.38,105.91,117,104.45,115.71,103Zm28.66,42.43a.28.28,0,0,1,.24.11c0,.05,0,.17,0,.25a.23.23,0,0,1-.09.11l-.28.26-.45.19a.13.13,0,0,1-.13,0,.16.16,0,0,1,0-.13C143.73,145.8,143.92,145.47,144.37,145.42Zm-5.68-.39a2.66,2.66,0,0,0,.73-1.11,8.79,8.79,0,0,1,.41-.81.89.89,0,0,1,.58-.44c.25-.06.5-.08.74-.16.51-.14,1-.34.81-1a.36.36,0,0,1,.09-.27,1.17,1.17,0,0,1,1.72-.31.3.3,0,0,1,.09.26,1,1,0,0,1-.26.36c-.45.4-.92.78-1.11.94a15.28,15.28,0,0,0-2.22,1.89,3.16,3.16,0,0,1-1.35.93c-.06,0-.17-.06-.24-.11S138.66,145.05,138.69,145Zm-3.53,2.89a2.31,2.31,0,0,1,.68-.3.3.3,0,0,1,.22.15.35.35,0,0,1,0,.28,3.39,3.39,0,0,1-.33.36,4.67,4.67,0,0,1-.5.27c-.07,0-.18,0-.26-.09a.14.14,0,0,1,0-.14C135,148.27,135,148,135.16,147.92Zm-.54,4.32.1-.11c.09,0,.17-.11.26-.11a.35.35,0,0,1,.27.07.26.26,0,0,1,.05.26,1,1,0,0,1-.27.33.32.32,0,0,1-.41,0A.38.38,0,0,1,134.62,152.24ZM129,156s-.09,0-.13,0-.09-.08-.09-.12a.61.61,0,0,1,.55-.6c.07,0,.21.08.21.14A.65.65,0,0,1,129,156Zm1.72.52a2.33,2.33,0,0,1-.31.32c-.12.07-.24.14-.37.2a.18.18,0,0,1-.14,0,.13.13,0,0,1,0-.12c.19-.21.37-.43.58-.62.05-.05.18,0,.28,0S130.79,156.43,130.75,156.49Zm1.71-3.28a3.32,3.32,0,0,1-.36.26s-.09,0-.14-.05,0-.28.22-.36a.94.94,0,0,1,.29,0C132.47,153.11,132.48,153.18,132.46,153.21Zm-3.59-.28a6.82,6.82,0,0,0,3.56-2.69.39.39,0,0,1,.53-.11c.15.07.24.27.15.36a5.35,5.35,0,0,1-.51.55c-.77.65-1.56,1.29-2.34,1.93a3.49,3.49,0,0,1-1.47.75c-.08,0-.18-.07-.27-.1s-.11-.15-.06-.27S128.67,153,128.87,152.93Zm-.47-25.8c.09,0,.22,0,.24,0a.48.48,0,0,1,0,.55s-.1.08-.12.06-.2-.08-.23-.15A.37.37,0,0,1,128.4,127.13Zm-1,31.68.13,0s0,.12,0,.14-.08,0-.13,0Zm-.8-24.2a1.29,1.29,0,0,1,0,.28,1.19,1.19,0,0,1-.27-.07s-.07-.07-.1-.1,0-.19,0-.29a1.37,1.37,0,0,1,.29.07A.13.13,0,0,1,126.6,134.61Zm-1.08-10.94c.18-.1.48-.06.52.08a3.08,3.08,0,0,1,.31,1.14.27.27,0,0,1-.06.12c-.07.09-.16.09-.25,0a2.86,2.86,0,0,1-.67-1A.34.34,0,0,1,125.52,123.67Zm-.39,22.58a.13.13,0,0,1,0,.13s-.08,0-.12,0-.09-.08-.08-.11S125,146.16,125.13,146.25Zm-.57-3.48c.06-.08.14-.07.18,0a.11.11,0,0,1,0,.1s-.07,0-.11,0S124.54,142.79,124.56,142.77Zm-.14,10.53a.33.33,0,0,1,.46-.23l.51.42c.12.2.2.32.27.45a1,1,0,0,1-.06,1,.39.39,0,0,1-.62.11,1.31,1.31,0,0,1-.57-1.15C124.43,153.7,124.41,153.5,124.42,153.3ZM123,150.58a1.33,1.33,0,0,1,.11.24l-.12,0a2.56,2.56,0,0,1-.11-.24S123,150.56,123,150.58Zm-1.06.56s0,.11,0,.11a.78.78,0,0,1-.2.11l-.06-.23C121.79,151,121.87,151,121.94,151.14Zm-4.08-19.91c.06,0,.14-.13.2-.12a1,1,0,0,1,.37.19s0,.17,0,.25-.08.06-.13.07a.41.41,0,0,1-.46-.25C117.86,131.32,117.84,131.25,117.86,131.23Zm-3.36-20.52a.32.32,0,0,1,.27,0,1.75,1.75,0,0,1,.32.27c.07.11.13.19.18.28a.17.17,0,0,1,0,.14s-.09.05-.14,0a.94.94,0,0,1-.66-.31C114.37,111,114.38,110.77,114.5,110.71Zm-.44,23.72a.54.54,0,0,1,.54-.17.4.4,0,0,1,.35.24.32.32,0,0,1-.08.4c-.15.14-.31.25-.47.38l-.63.38a.16.16,0,0,1-.25-.1c0-.08-.09-.21,0-.27A8.7,8.7,0,0,1,114.06,134.43Zm.66,7.15c-.07,0-.15-.09-.21-.16s0-.09,0-.13l.24.08C114.83,141.48,114.81,141.59,114.72,141.58Zm-1.33-16a.32.32,0,0,1-.4-.06.29.29,0,0,1,0-.39.34.34,0,0,1,.42,0A.3.3,0,0,1,113.39,125.55Zm-3.74-19.36a.79.79,0,0,1,.57-.42s.11,0,.12,0a.9.9,0,0,1,.13.4.49.49,0,0,1-.23.33.47.47,0,0,1-.49-.05C109.6,106.38,109.58,106.29,109.65,106.19ZM103.76,111l.27,0c0,.09,0,.21-.08.25s-.17,0-.26,0S103.74,111.12,103.76,111Zm-4.87,8.4a1.87,1.87,0,0,1,.24-.38,5,5,0,0,1,.36-.39,1.82,1.82,0,0,1,1.77-.27.46.46,0,0,1,.26.61,5.13,5.13,0,0,1-.36.65c-.75,1.07-1,1.17-2.18.33A.48.48,0,0,1,98.89,119.44Zm0,2a.46.46,0,0,1,.65-.09.39.39,0,0,1,0,.52.43.43,0,0,1-.64,0A.3.3,0,0,1,98.92,121.44Zm0,2.66a2.44,2.44,0,0,1-1-1,2.22,2.22,0,0,1-.15-.39.29.29,0,0,1,.17-.21c.42-.07.75.24,1.16.27a1.11,1.11,0,0,1,.94.68c.12.23.26.44.37.67s.37.41.12.64-.38,0-.55-.12C99.59,124.48,99.24,124.28,98.87,124.1Zm7.07,8.7a.35.35,0,0,1-.4.12,1.72,1.72,0,0,1-.49-.34c-1.38-1.73-3-3.29-4.31-5.07-.27-.37-.57-.7-.83-1.07A.33.33,0,0,1,100,126c.12-.1.24-.2.41-.15a2.16,2.16,0,0,1,1,.62,18.66,18.66,0,0,0,2.28,2.42,1.18,1.18,0,0,1,.19.25c.08.12.17.24.24.37a9,9,0,0,0,1.7,2.31.94.94,0,0,1,.22.39A.58.58,0,0,1,105.94,132.8Zm-.24-17.7c-.76.7-1.35,1.19-1.87,1.74a1.13,1.13,0,0,1-1.39.17s-.06-.07-.07-.11a.26.26,0,0,1,0-.15,2.56,2.56,0,0,1,.85-1,.56.56,0,0,1,.57-.07.74.74,0,0,0,.92-.36,5,5,0,0,1,1.18-1.36.47.47,0,0,0,.19-.23c.22-.75.89-1.08,1.41-1.54l1-.89a2.83,2.83,0,0,1,1.19-.65.88.88,0,0,0,.63-.61,1.93,1.93,0,0,1,.89-1c.68-.43,1.36-.87,2.05-1.29.1-.07.2,0,.26.09a.15.15,0,0,1,0,.13,12.56,12.56,0,0,1-2.22,2.27l-1.78,1.42a7.83,7.83,0,0,0-.81.7A33.82,33.82,0,0,1,105.7,115.1Zm7,16.65c-.11.11-.27.09-.4-.06s-.12-.31,0-.37.3-.11.43,0S112.85,131.63,112.75,131.75Zm-.66-17.2c-.06,0-.19,0-.21-.1s0-.15.05-.23a.62.62,0,0,1,.24,0A.17.17,0,0,1,112.09,114.55Zm-2.69.93s-.08,0-.13,0l0-.13s.09,0,.11,0S109.5,115.43,109.4,115.48Zm-1.89,18.57a1.81,1.81,0,0,1-.39-.93.49.49,0,0,1,.12-.25s.11,0,.15,0a4.37,4.37,0,0,1,1.23,1.08.32.32,0,0,1-.19.47A.8.8,0,0,1,107.51,134.05Zm8.76,13.45a.72.72,0,0,1-.2-.14s0-.08,0-.12a.9.9,0,0,1,.2.14S116.28,147.46,116.27,147.5Zm1.52,3.73c-.05,0-.14-.07-.21-.12l.14-.22c.12,0,.21,0,.2.13A.26.26,0,0,1,117.79,151.23Zm.83-1.16,0-.11.1,0Zm1.78-2a.51.51,0,0,0-.68.11.36.36,0,0,1-.53,0,5.73,5.73,0,0,1-.39-.45c-.27-.37-.52-.75-.79-1.11a8.3,8.3,0,0,0-2.52-2.38,4.67,4.67,0,0,1-1.26-1.09c-1.48-1.73-3-3.44-4.47-5.17-.66-.77-1.3-1.55-2-2.33a.36.36,0,0,1,0-.42.77.77,0,0,1,.27-.11,4.23,4.23,0,0,1,2.1.8.73.73,0,0,1,.26.36,15.83,15.83,0,0,0,.71,1.5,1.82,1.82,0,0,0,.82,1,.79.79,0,0,1,.42.75,2.55,2.55,0,0,0,1,2c.39.33.76.67,1.12,1s.61.5,1.08.28a.82.82,0,0,1,.84.21,2.42,2.42,0,0,1,.33.31c.39.46.77.94,1.18,1.39a2.37,2.37,0,0,1,.58,1.05,11.89,11.89,0,0,0,.35,1.16c.05.12.22.29.32.27a1.43,1.43,0,0,1,1.37.76s.08.1.06.12S120.51,148.16,120.4,148.08Zm-1.29-24.8.22,0,0,.22a1.16,1.16,0,0,1-.22-.06S119.1,123.28,119.11,123.28Zm1.54,13.59-.16-.15a.15.15,0,0,1,.21,0S120.67,136.83,120.65,136.87Zm-.38-10.24c.18-.12.45-.12.53,0a.45.45,0,0,1-.15.51.37.37,0,0,1-.49-.14A.27.27,0,0,1,120.27,126.63Zm-.41,13.14s.07,0,.11,0,0,.09-.07.09-.07,0-.1,0S119.83,139.77,119.86,139.77Zm-.09-21.32a.67.67,0,0,1-.59.57.74.74,0,0,1-.63-.34.37.37,0,0,1,.08-.4.82.82,0,0,1,1.08,0A.18.18,0,0,1,119.77,118.45Z"/><path class="f7a8e7a6-f2e5-40b9-a6de-155ba7b96319" d="M253.38,26.13a9.69,9.69,0,0,0-1.17-3.28,9,9,0,0,1-.81-1.46,11.09,11.09,0,0,0-1.89-2.56,1.22,1.22,0,0,0-1-.37,2.17,2.17,0,0,0-1.51.62c-1.58,1.36-3.2,2.67-4.72,4.09s-3.09,2.79-4.65,4.18-3,2.71-4.66,3.93a18.25,18.25,0,0,0-1.46,1.33c-.41.37-.82.76-1.24,1.12-1.89,1.62-3.92,3.07-5.72,4.81a2.11,2.11,0,0,1-.23.19c-1.83,1.45-3.67,2.89-5.5,4.35-1.19,1-2.39,1.89-3.56,2.87-1,.81-1.91,1.67-2.88,2.49-1.7,1.45-3.42,2.88-5.13,4.32-1,.85-2,1.74-3,2.56S202.07,57,201,57.8s-2.09,1.61-3.15,2.4c-.73.55-1.47,1.08-2.22,1.61a16.71,16.71,0,0,0-2.18,1.66c-.66.63-1.36,1.22-2.07,1.8-1.06.86-2.08,1.78-3.21,2.57-.16.12-.29.28-.46.4-.53.41-.79,1.08-1.31,1.47s-1.21.73-1.76,1.19c-1.08.92-2.19,1.81-3.29,2.72-.46.39-.91.81-1.38,1.19-1,.8-2,1.58-3,2.38l-3.65,3c-1.56,1.3-3.11,2.61-4.7,3.88-2,1.59-4,3.12-6,4.72-1.34,1.08-2.59,2.28-4,3.32l-6.35,5c-1.28,1-2.56,2-3.82,3-1.41,1.16-2.79,2.37-4.2,3.53s-2.76,2.23-4.15,3.35c-.79.63-1.64,1.21-2.38,1.89-1.7,1.55-3.5,3-5.28,4.38a10.31,10.31,0,0,1-1.4.93,11.11,11.11,0,0,0-1.61,1.13,1.22,1.22,0,0,0-.11,1.75c.57.59,1.17,1.14,1.68,1.77,1.26,1.53,2.47,3.1,3.7,4.65.07.08.14.14.22.22a.67.67,0,0,0,.57,0l.36-.29c.91-.81,1.83-1.6,2.72-2.43s2-1.57,2.93-2.43c1.23-1.14,2.59-2.13,3.9-3.18,1.06-.87,2.17-1.68,3.18-2.61s1.79-1.5,2.71-2.22q1.8-1.41,3.58-2.84l3.94-3.13c.84-.66,1.66-1.33,2.5-2,.59-.48,1.18-1,1.78-1.43l.6-.47,5-4.21c.59-.49,1.16-1,1.73-1.5.72-.64,1.42-1.3,2.16-1.93l5.68-4.84c.82-.69,1.62-1.39,2.46-2.05.36-.28.72-.56,1.06-.86s.92-.79,1.39-1.18c1.46-1.2,2.94-2.35,4.36-3.59q4.08-3.56,8.47-6.73c.66-.47,1.31-1,1.93-1.48l8.54-7.14c2.1-1.76,4.22-3.51,6.32-5.28.58-.49,1.13-1,1.7-1.53.37-.34.74-.68,1.13-1,.69-.59,1.38-1.19,2.09-1.78,1.72-1.43,3.43-2.86,5.17-4.27s3.74-3,5.61-4.45c.36-.28.7-.59,1-.89.64-.58,1.27-1.17,1.93-1.73,1.63-1.37,3.25-2.76,4.93-4.08q2.28-1.79,4.53-3.6c1.62-1.31,3.34-2.49,5-3.74.61-.46,1.19-.95,1.78-1.43.4-.32.78-.65,1.19-.94,1.32-1,2.55-2,3.8-3,.12-.1.21-.22.32-.33A1,1,0,0,0,253.38,26.13ZM130.47,116.45a.26.26,0,0,1-.22-.12c-.09-.14,0-.26.1-.35s.2,0,.24,0S130.62,116.43,130.47,116.45Zm5.81,0c-.13,0-.19-.07-.17-.17a.16.16,0,0,1,.06-.13c.26-.25.48-.28.65-.11,0,.08.05.2,0,.25A.64.64,0,0,1,136.28,116.46Zm.67,3.12c-.14.09-.37,0-.36-.08a.9.9,0,0,1,.12-.24.66.66,0,0,1,.27,0C137.1,119.27,137.08,119.5,137,119.58Zm2.08-10.1a1.4,1.4,0,0,1-.34.26.31.31,0,0,1-.26,0s0-.18,0-.24a2.83,2.83,0,0,1,.3-.3,1.21,1.21,0,0,1,.29-.07C139.14,109.08,139.13,109.37,139,109.48Zm1,3.19s-.11,0-.12,0,0-.17.07-.22.09,0,.13,0S140.12,112.62,140,112.67Zm2,1.61a.7.7,0,0,1-1.21,0s0-.17.08-.31l1.12.1a.14.14,0,0,1,.06.11A.19.19,0,0,1,142.05,114.28Zm5.82-2.21a.19.19,0,0,1-.13,0c-.07-.08-.05-.16.06-.21s.1,0,.12,0S148,112,147.87,112.07Zm.12-4.64a2.45,2.45,0,0,1,0-.27c.08,0,.2,0,.25.1s0,.17,0,.27Zm2.59-1.76c-.06,0-.16,0-.24-.06a.35.35,0,0,1,.06-.4.27.27,0,0,1,.39,0C150.91,105.37,150.81,105.6,150.58,105.67Zm6.23-3.3a3.58,3.58,0,0,0-1.34,1.12,1.47,1.47,0,0,1-.5.31.16.16,0,0,1-.24-.1,4.66,4.66,0,0,1-.13-.73.31.31,0,0,1,.11-.25c.69-.3,1.39-.58,2.08-.85,0,0,.08,0,.11.08a.16.16,0,0,1,0,.12A1.87,1.87,0,0,1,156.81,102.37Zm2-1.73.08-.11.05.09Zm5-4.74a1.22,1.22,0,0,1-.27.33.45.45,0,0,1-.54-.06.42.42,0,0,1,.07-.53l.13-.1a1.45,1.45,0,0,1,.25-.1.31.31,0,0,1,.35.19A.32.32,0,0,1,163.8,95.9Zm22.53-20.47a.46.46,0,0,1-.38,0c-.25-.11-.24-.38,0-.6a1.34,1.34,0,0,1,.26-.09c.12,0,.26.15.25.3A.71.71,0,0,1,186.33,75.43Zm5.25-1.8a.66.66,0,0,1-.17.23.32.32,0,0,1-.39.06.3.3,0,0,1-.12-.38,1.49,1.49,0,0,1,.14-.24,1.31,1.31,0,0,1,.27-.06A.28.28,0,0,1,191.58,73.63Zm10.22-8.85a3.28,3.28,0,0,1-.45.59c-.65.56-1.31,1.1-2.19,1.84-.42.3-1.07.78-1.73,1.24-.06,0-.18,0-.27,0a.16.16,0,0,1-.09-.11,2.61,2.61,0,0,1,1.05-1.91c1-.66,2-1.35,3-2a.68.68,0,0,1,.27-.1.51.51,0,0,1,.27.06A.37.37,0,0,1,201.8,64.78Zm1.62-5.26a6.63,6.63,0,0,1-.52.54c-.43.35-.88.69-1.32,1v0c-.41.3-.82.6-1.22.91a7.39,7.39,0,0,1-1.86,1s-.12,0-.12,0a.9.9,0,0,1,0-.28.16.16,0,0,1,.06-.13c.87-.62,1.63-1.36,2.56-1.9.52-.3,1-.7,1.5-1a1.12,1.12,0,0,1,.84-.27c.05,0,.09,0,.12.09S203.44,59.5,203.42,59.52Zm1.63-1.24s-.09,0-.13,0-.06-.07-.06-.09a.51.51,0,0,1,.44-.32C205.44,57.89,205.32,58.11,205.05,58.28Zm6.59,1.51a1.37,1.37,0,0,1-.24.18.71.71,0,0,1-.25,0,1.12,1.12,0,0,1,.13-.24c.07-.07.16-.12.24-.19a2,2,0,0,1,.26-.1C211.9,59.44,211.83,59.62,211.64,59.79Zm5.51-8.24c-.1.07-.17,0-.15-.07s.06,0,.1-.08l.1,0S217.18,51.53,217.15,51.55Zm2.69-2.18a3,3,0,0,1-.55.22.21.21,0,0,1-.13,0,.64.64,0,0,1,.05-.24.6.6,0,0,1,.2-.22,2.89,2.89,0,0,1,.28-.23l.21-.11a.23.23,0,0,1,.14,0c0,.09.09.2.06.27A.71.71,0,0,1,219.84,49.37ZM224,45.83a.31.31,0,0,1-.25-.1.27.27,0,0,1,0-.26c.19-.23.39-.44.5-.55a2.46,2.46,0,0,1,1.15-.63.23.23,0,0,1,.11.07s0,.1,0,.12A3.27,3.27,0,0,1,224,45.83Zm2.71-2.28c-.09.06-.16,0-.17-.07a.13.13,0,0,1,.07-.09s.07,0,.1,0S226.71,43.53,226.69,43.55ZM245,29.05c-.08.12-.24.3-.31.27-.37-.13-.71-.37-1.09-.47a1.92,1.92,0,0,1-1-.67c-.48-.54-.41-.7.2-1.19a.28.28,0,0,1,.46.17c.08.29.14.59.23.87a.92.92,0,0,0,.63.61c.24.06.49.1.73.18A.3.3,0,0,1,245,29.05Zm.15-4.67a.29.29,0,0,1-.38.09.23.23,0,0,1-.08-.23.34.34,0,0,1,.47-.2s.06.06.09.1A.87.87,0,0,1,245.15,24.38Zm3.29.81a.62.62,0,0,1-.67.18.34.34,0,0,1-.18-.38.33.33,0,0,1,.29-.28.62.62,0,0,1,.53.22C248.43,25,248.48,25.15,248.44,25.19Z"/><path class="f7a8e7a6-f2e5-40b9-a6de-155ba7b96319" d="M106.17,142.28l-1.82-2.18a5.56,5.56,0,0,0-.62-.66c-1-.82-1.34-1.12-2.19.37a.78.78,0,0,0-.06.58,3,3,0,0,0,.88,1.39,40.16,40.16,0,0,1,3.81,4.12c.09.12.2.23.3.34.64.7,1,.74,1.84.18a2.45,2.45,0,0,0,.35-.29.72.72,0,0,0,.12-.83c-.12-.17-.23-.34-.36-.49Zm-1,.72s-.09.05-.11,0a2.09,2.09,0,0,1-.2-.22.14.14,0,0,1,.06-.11C105,142.69,105.2,142.89,105.14,143Z"/><path class="f7a8e7a6-f2e5-40b9-a6de-155ba7b96319" d="M200.22,88.62a8,8,0,0,0-.85.35,270.62,270.62,0,0,1-28.94,14.52c-2.81,1.22-5.43,2.89-8.13,4.38-.25.13-.41.45-.6.68a1.16,1.16,0,0,0,.41,1.59c.27.12.57.19,1.08.35a8.32,8.32,0,0,0,1.49-.63,64.9,64.9,0,0,1,10.11-5.57c4.71-1.92,9.24-4.24,13.8-6.52,4-2,7.73-4.48,11.83-6.3a3.24,3.24,0,0,0,1.06-.86,1.14,1.14,0,0,0,.26-1.27A1.32,1.32,0,0,0,200.22,88.62Z"/><path class="f7a8e7a6-f2e5-40b9-a6de-155ba7b96319" d="M160.89,143.08a2.53,2.53,0,0,0,.93,1c1.42.6,2.92,1,4.32,1.64,2.26,1,4.49,2.1,6.7,3.2,4.85,2.42,9.65,4.91,14.52,7.29,2.5,1.21,5.09,2.25,7.66,3.33a10.62,10.62,0,0,0,2.23.59.94.94,0,0,0,.75-.4,1,1,0,0,0,0-.86,4,4,0,0,0-2.13-1.69c-3.37-1.55-6.78-3-10.13-4.64-3.63-1.72-7.3-3.39-10.8-5.36-3.66-2.06-7.49-3.7-11.31-5.39a9.72,9.72,0,0,0-1.67-.42,3.4,3.4,0,0,0-.91.49A1,1,0,0,0,160.89,143.08Z"/><path class="f7a8e7a6-f2e5-40b9-a6de-155ba7b96319" d="M184.36,128.35q8.12-.27,16.23-.56a1.39,1.39,0,0,0,.83-.31,1.1,1.1,0,0,0,.38-.75,1.34,1.34,0,0,0-1.05-1.33c-1.22-.09-2.46-.21-3.69-.18-3.24.06-6.49.26-9.73.29-6.5.06-13,0-19.49.06a1.67,1.67,0,0,0-.9.14,2.91,2.91,0,0,0-.92,1c-.24.42.26,1.37.77,1.51a7,7,0,0,0,1.79.31c5.26-.12,10.52-.28,15.77-.42Z"/><path class="f7a8e7a6-f2e5-40b9-a6de-155ba7b96319" d="M83.86,128.15c.35-.15.45-.85.26-1.22a1.84,1.84,0,0,0-1.43-1.05,4.5,4.5,0,0,0-1.83.06,22.21,22.21,0,0,1-5.49.75c-6,.33-12,.59-18,.86-2.16.1-4.32.09-6.47.27a41.49,41.49,0,0,0-4.55.75c-.2,0-.36.44-.48.71s.37.95.78,1c.76,0,1.53,0,2.3,0,2.46-.1,4.92-.23,7.39-.34v.23c2-.07,4-.06,6-.24,4.62-.42,9.24-.59,13.87-.7,2,0,4-.18,6-.37A5.43,5.43,0,0,0,83.86,128.15Z"/><path class="f7a8e7a6-f2e5-40b9-a6de-155ba7b96319" d="M100.44,60.64c3.61,8.53,6.53,17.32,9.71,26a4.91,4.91,0,0,0,.73,1.16,1.43,1.43,0,0,0,1.69.23,5.54,5.54,0,0,0,.85-1,8.71,8.71,0,0,0-.3-1.41Q108.1,73,103,60.28a12.62,12.62,0,0,0-1.4-2.37,1,1,0,0,0-1.14-.58c-.44.1-.77.88-.58,1.55A13.3,13.3,0,0,0,100.44,60.64Z"/><path class="f7a8e7a6-f2e5-40b9-a6de-155ba7b96319" d="M137.54,73.12a1,1,0,0,0,1-.8c.55-2.24,1-4.5,1.52-6.75s1-4.2,1.48-6.3c.78-3.46,1.7-6.89,2.23-10.39a45.16,45.16,0,0,1,1.07-5.42c.28-1,.64-2.07.83-3.12a4.92,4.92,0,0,0-.09-1.83c0-.23-.41-.42-.66-.57a1,1,0,0,0-1.17.45c-.06.13-.19.25-.22.39-.64,3-1.27,6-1.9,9s-1.11,5.76-1.79,8.61c-1.16,4.8-2.43,9.57-3.62,14.35a5.21,5.21,0,0,0,0,1.37A1.21,1.21,0,0,0,137.54,73.12Z"/><path class="f7a8e7a6-f2e5-40b9-a6de-155ba7b96319" d="M93.12,73.77C96,78.9,98.7,84.08,101.51,89.23a10.92,10.92,0,0,0,1.32,1.85,1.12,1.12,0,0,0,.86.22A1.61,1.61,0,0,0,105,89.64a7.21,7.21,0,0,0-.65-1.69c-1.15-2-2.34-4-3.52-6s-2.1-3.79-3.31-5.57a79.33,79.33,0,0,1-6-10.45,9.34,9.34,0,0,0-1.21-2,3,3,0,0,0-1-.57c-1,0-1.69,1-1.39,1.6s.53,1.11.84,1.63C90.23,69,91.78,71.35,93.12,73.77Z"/><path class="f7a8e7a6-f2e5-40b9-a6de-155ba7b96319" d="M173.07,59.93c-.21.22-.47.4-.66.64-.78,1-1.52,2-2.3,2.91q-8,9.65-16,19.3c-.69.83-1.29,1.74-1.92,2.62a1.71,1.71,0,0,0,.37,1.71,1.24,1.24,0,0,0,1.66-.06c.3-.35.6-.7.88-1.07,2.78-3.71,5.6-7.39,8.61-10.92,3.41-4,6.37-8.37,9.91-12.26a3.24,3.24,0,0,0,1-2.08,3.74,3.74,0,0,0-.3-.81A1,1,0,0,0,173.07,59.93Z"/><path class="f7a8e7a6-f2e5-40b9-a6de-155ba7b96319" d="M70.36,140.17a2.5,2.5,0,0,0,1.19-.63,4.7,4.7,0,0,0,.64-1.25,7,7,0,0,0-1.07-.85,1.33,1.33,0,0,0-.9-.06c-5.63,1.69-11.39,2.8-17.06,4.32-3.28.87-6.51,1.89-9.76,2.89a3.08,3.08,0,0,0-1.91,1.2,1,1,0,0,0,.61,1.41,1.53,1.53,0,0,0,.9,0c1.65-.43,3.28-.91,4.91-1.36,5.51-1.53,11-3.14,16.57-4.39C66.43,141,68.4,140.63,70.36,140.17Z"/><path class="f7a8e7a6-f2e5-40b9-a6de-155ba7b96319" d="M127.89,86.21c.42.07,1-.24,1.11-.59a35.71,35.71,0,0,0,.89-8.25c-.16-3.7-.27-7.41-.42-11.52a13.23,13.23,0,0,1,0-1.44c.32-3.87-.22-7.72-.26-11.58a4.61,4.61,0,0,0-.5-1.75.9.9,0,0,0-.76-.33,1,1,0,0,0-.7.5,3,3,0,0,0-.34,1.31c0,1.7.07,3.4.14,5.1a48.19,48.19,0,0,1,.25,5.09c-.16,2.78,0,5.55.1,8.33.1,4.31.53,8.65-.61,12.91a2.59,2.59,0,0,0,.12,1.37A1.2,1.2,0,0,0,127.89,86.21Z"/><path class="f7a8e7a6-f2e5-40b9-a6de-155ba7b96319" d="M79.62,76a1.33,1.33,0,0,0-.89,0,1,1,0,0,0-.57,1.12,4.28,4.28,0,0,0,.55,1.25c.77,1,1.59,1.9,2.44,2.79,4.61,4.79,8.82,9.93,13.1,15a10.92,10.92,0,0,0,1.63,1.63,1.73,1.73,0,0,0,1.26.31,1.52,1.52,0,0,0,1.14-1.09,1.83,1.83,0,0,0-.53-1.86,32.92,32.92,0,0,1-4.07-3.76c-3.82-4.87-8.22-9.22-12.32-13.83A10.9,10.9,0,0,0,79.62,76Z"/><path class="f7a8e7a6-f2e5-40b9-a6de-155ba7b96319" d="M140.56,89.4a.93.93,0,0,0,.39.78,1.46,1.46,0,0,0,2.23-.67c.77-1.68,1.44-3.4,2.18-5.09.56-1.26,1.29-2.46,1.75-3.76,1.31-3.63,3-7.08,4.57-10.59,1.07-2.38,1.93-4.85,2.8-7.31.1-.3-.29-.77-.44-1.13-.42.07-.8,0-1,.18a5.07,5.07,0,0,0-1.1,1.43c-1.08,2.38-2.06,4.8-3.14,7.18-2.6,5.75-5.25,11.47-7.85,17.22A5.59,5.59,0,0,0,140.56,89.4Z"/><path class="f7a8e7a6-f2e5-40b9-a6de-155ba7b96319" d="M69.85,88.26a233.07,233.07,0,0,1,19.81,14.39.83.83,0,0,0,.39.23c.44,0,1,.19,1.31,0a1.7,1.7,0,0,0,.66-1.12,1.66,1.66,0,0,0-.69-1.62c-1.76-1.23-3.56-2.42-5.32-3.67-4-2.84-8-5.71-12.05-8.56-1.39-1-2.79-1.93-4.22-2.82a7.14,7.14,0,0,0-1.6-.53c-.36.32-.68.47-.77.71a1.21,1.21,0,0,0,.1.87A6.09,6.09,0,0,0,69.85,88.26Z"/><path class="f7a8e7a6-f2e5-40b9-a6de-155ba7b96319" d="M175.06,117.6a14.57,14.57,0,0,0,2.73-.35c4.47-1.14,8.92-2.37,13.4-3.46,2.68-.65,5.3-1.6,7.93-2.48a4.67,4.67,0,0,0,1.49-1c.17-.15.13-.55.19-.83a1.13,1.13,0,0,0-1-.82c-.6.1-1.21.17-1.8.33-4.16,1.14-8.31,2.31-12.46,3.45-3.26.9-6.54,1.77-9.8,2.67a10.46,10.46,0,0,0-1.26.52,1.12,1.12,0,0,0,.58,2Z"/><path class="f7a8e7a6-f2e5-40b9-a6de-155ba7b96319" d="M87.56,109.6a1.55,1.55,0,0,0-1-1.46q-9.09-3.45-18.2-6.82c-1.3-.49-2.63-.9-4-1.31a3.39,3.39,0,0,0-.9,0,5.66,5.66,0,0,0-.67.61.89.89,0,0,0,.29,1.2c1.24.61,2.47,1.25,3.75,1.76,2.72,1.09,5.49,2.06,8.2,3.16,3.43,1.4,6.82,2.88,10.22,4.33A1.52,1.52,0,0,0,87.56,109.6Z"/><path class="f7a8e7a6-f2e5-40b9-a6de-155ba7b96319" d="M164.66,36.32a.44.44,0,0,0,.43,0,3.63,3.63,0,0,0,1-.89q3.36-5.79,6.65-11.62a4.9,4.9,0,0,0,.38-.84c1.06-2.56,2.15-5.11,3.17-7.69a28.11,28.11,0,0,0,.82-2.78c-.06-.64-.1-.94-.12-1.25s-.55-1-.91-.87a3.4,3.4,0,0,0-1.16.57,1.43,1.43,0,0,0-.43.79,53.16,53.16,0,0,1-6.19,14.87c-1.3,2.27-2.51,4.6-3.68,6.94a7.37,7.37,0,0,0-.53,2.21C164.08,35.91,164.44,36.16,164.66,36.32Z"/><path class="f7a8e7a6-f2e5-40b9-a6de-155ba7b96319" d="M31.28,89.23c6,2.45,12,4.87,18,7.31,1.71.7,3.39,1.46,5.1,2.15.74.3,1.89-.82,1.78-1.66A1.58,1.58,0,0,0,55,95.74c-3.62-.88-6.94-2.54-10.41-3.81-3.91-1.43-7.81-2.88-11.72-4.29a3,3,0,0,0-2.23-.26c-.23.09-.38.43-.5.68a.46.46,0,0,0,.09.42A4.65,4.65,0,0,0,31.28,89.23Z"/><path class="f7a8e7a6-f2e5-40b9-a6de-155ba7b96319" d="M114.37,61.24a3,3,0,0,0-.23,1.34c.13,1.23.34,2.44.56,3.66,1.14,6.37,3,12.58,3.91,19a2.26,2.26,0,0,0,.19.42,1.53,1.53,0,0,0,1.52.79,1.58,1.58,0,0,0,1.28-2,128.89,128.89,0,0,1-3.66-15.75c-.34-2-.6-4-.94-5.94a6.1,6.1,0,0,0-.45-1.28,1.37,1.37,0,0,0-1.52-.75C114.8,60.87,114.47,61,114.37,61.24Z"/><path class="f7a8e7a6-f2e5-40b9-a6de-155ba7b96319" d="M24.5,131.49a2.09,2.09,0,0,0,.37-1.21c0-.56-.49-.75-.92-.84a3.17,3.17,0,0,0-1.37,0c-3.93.91-7.93.82-11.92,1-2.91.12-5.82.38-8.73.61a2.5,2.5,0,0,0-1.31.36A2,2,0,0,0,0,132.45c0,.21.26.55.48.73a1.49,1.49,0,0,0,.81.36c.92,0,1.84,0,3.47,0a3.26,3.26,0,0,0,.67-.05c4.89-.5,9.79-.85,14.71-.92a17.3,17.3,0,0,0,3.18-.46A2.13,2.13,0,0,0,24.5,131.49Z"/><path class="f7a8e7a6-f2e5-40b9-a6de-155ba7b96319" d="M187.93,139.77a1.37,1.37,0,0,0-1.5.79,1.22,1.22,0,0,0,.64,1.52,13.38,13.38,0,0,0,1.74.63c4,1,8.07,2.08,12.11,3.06,2.85.69,5.72,1.28,8.43,1.88a3.47,3.47,0,0,0,1.06-.15,1.07,1.07,0,0,0,.49-.69.94.94,0,0,0-.28-.8,6,6,0,0,0-1.63-.83c-4.3-1.21-8.61-2.43-12.94-3.55C193.36,140.93,190.64,140.38,187.93,139.77Z"/><path class="f7a8e7a6-f2e5-40b9-a6de-155ba7b96319" d="M50.14,47.45c3.45,3.94,7.09,7.72,10.37,11.81,1.25,1.56,2.76,2.91,4.15,4.34a.57.57,0,0,0,.41.18,3.86,3.86,0,0,0,1.27-.29c.22-.11.3-.49.5-.84a4.34,4.34,0,0,0-.55-1.15q-7.05-7.68-14.15-15.31a16.71,16.71,0,0,0-1.68-1.58,1.35,1.35,0,0,0-.83-.31,1.58,1.58,0,0,0-.78.38c-.09.06-.12.29-.09.43A4.8,4.8,0,0,0,50.14,47.45Z"/><path class="f7a8e7a6-f2e5-40b9-a6de-155ba7b96319" d="M74.86,43.13a53.43,53.43,0,0,1,3.22,5.58c1.49,2.68,3.1,5.3,4.7,7.92a3,3,0,0,0,1.06.81c.66.38,1.77-.22,1.74-1.43a3.66,3.66,0,0,0-.45-1.21,68.54,68.54,0,0,1-5.76-10A48.31,48.31,0,0,0,75,38.34a1.29,1.29,0,0,0-1.68-.06,1.06,1.06,0,0,0-.42,1.2A25.83,25.83,0,0,0,74.86,43.13Z"/><path class="f7a8e7a6-f2e5-40b9-a6de-155ba7b96319" d="M108.47,34.86a49.49,49.49,0,0,0,.78,5c.94,4.51,2.51,8.89,3,13.5,0,.14.16.27.21.41a1.45,1.45,0,0,0,1.51.78,1.34,1.34,0,0,0,1.12-1.25c0-.15,0-.31,0-.56-.13-.66-.29-1.41-.41-2.17-.9-5.47-2.71-10.73-3.69-16.18a1.27,1.27,0,0,0-1.88-.65A1.66,1.66,0,0,0,108.47,34.86Z"/><path class="f7a8e7a6-f2e5-40b9-a6de-155ba7b96319" d="M65.59,153.72a6.81,6.81,0,0,0,1.25-.42c4.17-2.31,8.56-4.18,12.88-6.19,2.08-1,4-2.25,6-3.42.62-.36.4-1.63-.3-1.93a1.8,1.8,0,0,0-1.77,0c-4.21,2.89-8.85,5-13.4,7.19-1.52.75-3,1.56-4.47,2.39a2.82,2.82,0,0,0-.93,1,1.06,1.06,0,0,0,0,.87C65,153.41,65.29,153.52,65.59,153.72Z"/><path class="f7a8e7a6-f2e5-40b9-a6de-155ba7b96319" d="M72.75,164c.13-.07.29-.1.42-.18,5.64-3.53,10.82-7.71,16.24-11.54a1.65,1.65,0,0,0,.51-.75,3.71,3.71,0,0,0,.09-.9c-.09-.52-.92-1.15-1.36-1a7.25,7.25,0,0,0-1.61.84c-2,1.47-3.63,3.34-5.66,4.76s-4.33,3-6.49,4.46c-.76.53-1.52,1.06-2.26,1.62a3.19,3.19,0,0,0-.95,1,2.19,2.19,0,0,0-.12,1.27C71.63,164,72.36,164.17,72.75,164Z"/><path class="f7a8e7a6-f2e5-40b9-a6de-155ba7b96319" d="M46.64,111.65l-1.63.13a1.28,1.28,0,0,0-.84,1,1.21,1.21,0,0,0,.63,1.13,1.75,1.75,0,0,0,.43.17c5.31,1,10.63,2,16,2.89A10.27,10.27,0,0,0,63,117c.5,0,1.22-.83,1-1.28s-.48-.94-.81-1c-3.78-.76-7.57-1.44-11.37-2.13C50.06,112.21,48.23,111.92,46.64,111.65Z"/><path class="f7a8e7a6-f2e5-40b9-a6de-155ba7b96319" d="M127.09,19.33a2.58,2.58,0,0,0,.3.87,1.49,1.49,0,0,0,1.53.78A1.54,1.54,0,0,0,130,19.61v-.83c-.71-3-.64-6.4-1-9.79-.27-2.61-.72-5.21-1.15-7.8A1.47,1.47,0,0,0,126.58,0c-.49-.09-1.06.61-1,1.29,0,.31,0,.62,0,.92C126.22,7.91,127.2,13.57,127.09,19.33Z"/><path class="f7a8e7a6-f2e5-40b9-a6de-155ba7b96319" d="M85.65,120.54c.45,0,1.08-.76,1.12-1.47-.16-.26-.29-.82-.63-1a5.58,5.58,0,0,0-2.17-.66c-4.47-.25-8.87-1.07-13.29-1.76a7,7,0,0,0-.91,0,1.12,1.12,0,0,0-.87.95,2,2,0,0,0,.45,1.2,2.26,2.26,0,0,0,1.24.54c4.87.72,9.78,1.21,14.61,2.22A1.77,1.77,0,0,0,85.65,120.54Z"/><path class="f7a8e7a6-f2e5-40b9-a6de-155ba7b96319" d="M220.1,124.47c-.73.15-.93,1.33-.34,1.88a1.43,1.43,0,0,0,.77.43c1.06,0,2.13-.17,3.2-.16a82.63,82.63,0,0,0,13.78-1.11,4.11,4.11,0,0,0,1.29-.44c.23-.14.53-.56.46-.72-.16-.39-.45-.89-.8-1a5.08,5.08,0,0,0-1.83-.07c-2.15.16-4.29.36-6.44.54v-.09c-2.3.08-4.61.12-6.91.25A22.93,22.93,0,0,0,220.1,124.47Z"/><path class="f7a8e7a6-f2e5-40b9-a6de-155ba7b96319" d="M223.36,76.83a3.83,3.83,0,0,0-1.33.22c-4.5,2.32-9,4.68-13.47,7a.74.74,0,0,0-.34.31,4.23,4.23,0,0,0-.39,1.22c0,.5.88,1,1.45.79a10,10,0,0,0,1.72-.61c2-1.07,4.06-2.17,6.08-3.29s4.28-2.41,6.39-3.66c.35-.21.55-.69.71-.9A1,1,0,0,0,223.36,76.83Z"/><path class="f7a8e7a6-f2e5-40b9-a6de-155ba7b96319" d="M177.48,137c-3.57-1-7.17-1.9-10.76-2.84a3.23,3.23,0,0,0-.64,0,4.73,4.73,0,0,0-.91.71,1.27,1.27,0,0,0,.46,1.61,5.75,5.75,0,0,0,1.24.62c3.9,1,7.81,1.91,11.72,2.85a2.34,2.34,0,0,0,.46,0,1,1,0,0,0,1-.8,1,1,0,0,0-.46-1.19A10.17,10.17,0,0,0,177.48,137Z"/><path class="f7a8e7a6-f2e5-40b9-a6de-155ba7b96319" d="M92.56,41.69a1.58,1.58,0,0,0,1.57.73,1.78,1.78,0,0,0,1.06-1.85,4.26,4.26,0,0,0-.26-.88Q92.74,35.35,90.5,31a3.1,3.1,0,0,0-1-1,2.32,2.32,0,0,0-.87-.17,1.1,1.1,0,0,0-.93.87,2.42,2.42,0,0,0,.06.9C89.36,35,91,38.36,92.56,41.69Z"/><path class="f7a8e7a6-f2e5-40b9-a6de-155ba7b96319" d="M220.41,105.48a3.45,3.45,0,0,0,1.14-.76c.19-.19.38-.61.29-.81a1.88,1.88,0,0,0-.8-1,2.16,2.16,0,0,0-1.35.06c-3.38,1.07-6.75,2.21-10.23,3a1.49,1.49,0,0,0-1.05,1.36,1.22,1.22,0,0,0,1.3,1l1.12-.06c1-.21,2.26-.38,3.43-.74C216.33,106.92,218.37,106.21,220.41,105.48Z"/><path class="f7a8e7a6-f2e5-40b9-a6de-155ba7b96319" d="M83.23,21.1a2.38,2.38,0,0,0,.56.71,1.12,1.12,0,0,0,1.28.23A4.39,4.39,0,0,0,86,21.3a3.67,3.67,0,0,0-.14-1c-1.2-2.49-2.42-5-3.65-7.45a17,17,0,0,0-.94-1.59,1.61,1.61,0,0,0-2-.73c-.69.31-.88,1.08-.41,1.94A79.33,79.33,0,0,1,83.23,21.1Z"/><path class="f7a8e7a6-f2e5-40b9-a6de-155ba7b96319" d="M11.48,82.25q4.29,1.59,8.63,3a2.52,2.52,0,0,0,1.36,0,.91.91,0,0,0,.62-.57A2.66,2.66,0,0,0,22,83.4a1.2,1.2,0,0,0-.69-.55c-2.88-1-5.77-2-8.66-3a3.39,3.39,0,0,0-1-.11c-.81.07-1.3,1.09-1,1.51S11.11,82.11,11.48,82.25Z"/><path class="f7a8e7a6-f2e5-40b9-a6de-155ba7b96319" d="M182.16,51.14c1.28-1.72,2.6-3.43,3.85-5.17a24.72,24.72,0,0,0,1.7-2.72,4.4,4.4,0,0,0,.24-1.31c-.23-.27-.39-.58-.63-.69a1.57,1.57,0,0,0-.86,0c-.13,0-.26.17-.35.29q-2.64,3.49-5.26,7c-.27.37-.48.79-.71,1.18a1.43,1.43,0,0,0,.4,1.66A1.15,1.15,0,0,0,182.16,51.14Z"/><path class="f7a8e7a6-f2e5-40b9-a6de-155ba7b96319" d="M25.69,151.31c3.08.23,6-1.19,9-1.1a.55.55,0,0,0,.39-.2c.26-.34.64-.68.7-1.06a1.54,1.54,0,0,0-1.61-1.75c-.29.05-.6.07-.89.15-2.21.57-4.42,1.15-6.61,1.75a7,7,0,0,0-1.23.6c-.41.21-.71.89-.47,1.13S25.45,151.29,25.69,151.31Z"/><path class="f7a8e7a6-f2e5-40b9-a6de-155ba7b96319" d="M157.51,54.27c.25-.16.81-.31,1-.64,1.18-2.5,2.33-5,3.38-7.58a3.41,3.41,0,0,0,0-1.79c0-.21-.41-.45-.67-.51a1.28,1.28,0,0,0-.85.16,1.59,1.59,0,0,0-.59.69c-1.18,2.68-2.34,5.36-3.5,8a3.25,3.25,0,0,0-.08.45C156,53.51,156.81,54.29,157.51,54.27Z"/><path class="f7a8e7a6-f2e5-40b9-a6de-155ba7b96319" d="M56.14,156.35c-2.88,1.47-6,2.58-8.41,4.78a1.12,1.12,0,0,0-.33.81c0,.27.27.52.46.84a3.7,3.7,0,0,0,1.29-.18c2.32-1.23,4.61-2.51,6.9-3.8a3.57,3.57,0,0,0,1-1,1.27,1.27,0,0,0,.17-.84C57.16,156.63,56.42,156.2,56.14,156.35Z"/><path class="f7a8e7a6-f2e5-40b9-a6de-155ba7b96319" d="M146,32.9a1.48,1.48,0,0,0,.76-.36c.11-.07.16-.25.21-.4a36.86,36.86,0,0,0,1.47-8.08,1.29,1.29,0,0,0-.29-.83,1.17,1.17,0,0,0-.73-.45,1.57,1.57,0,0,0-.77.37.7.7,0,0,0-.25.37,32.94,32.94,0,0,0-1.34,7.72,7,7,0,0,0,.25,1.24A.9.9,0,0,0,146,32.9Z"/><path class="f7a8e7a6-f2e5-40b9-a6de-155ba7b96319" d="M31.72,131a2.66,2.66,0,0,0,1.23.54c.91.08,1.83,0,2.74,0v.06h.92a4.59,4.59,0,0,0,.91,0,17.26,17.26,0,0,0,1.75-.45c.47-.15.75-1,.63-1.57a1.07,1.07,0,0,0-.9-.89,19.72,19.72,0,0,0-7.2.83c-.2.06-.4.46-.41.71A1,1,0,0,0,31.72,131Z"/><path class="f7a8e7a6-f2e5-40b9-a6de-155ba7b96319" d="M133.93,88.12c.43,0,1,0,1.25-.29a4.91,4.91,0,0,0,1-2,25.57,25.57,0,0,0,.27-3.17h.13c0-.91,0-1.82,0-2.72a3.19,3.19,0,0,0-.33-.83.78.78,0,0,0-1.15-.18,3.41,3.41,0,0,0-.72,1.11c-.46,1.93-.85,3.86-1.23,5.8a8.8,8.8,0,0,0,0,1.36C133.07,87.53,133.56,88.14,133.93,88.12Z"/><path class="f7a8e7a6-f2e5-40b9-a6de-155ba7b96319" d="M50.82,74.93c.16.13.59,0,.86-.1a1.74,1.74,0,0,0,1.06-1.42,1.56,1.56,0,0,0-.82-1.48c-1.64-1.1-3.32-2.15-5-3.2a1.83,1.83,0,0,0-.83-.35,1.24,1.24,0,0,0-.81.31,1.07,1.07,0,0,0-.36.77,2.18,2.18,0,0,0,.54,1.22C47.21,72.14,49,73.55,50.82,74.93Z"/><path class="f7a8e7a6-f2e5-40b9-a6de-155ba7b96319" d="M158.67,149.58a.93.93,0,0,0,.19,1.24c1.27,1.07,2.59,2.08,3.92,3.07a2.18,2.18,0,0,0,.87.2c.48.09,1.28-.74,1.13-1.17,0-.14-.05-.33-.14-.42-1-1.08-2.07-2.2-3.21-3.17a2.63,2.63,0,0,0-1.7-.43A1.73,1.73,0,0,0,158.67,149.58Z"/><path class="f7a8e7a6-f2e5-40b9-a6de-155ba7b96319" d="M79.33,137.45a14.42,14.42,0,0,0,5.15-1.38,1,1,0,0,0,.43-1.2,1.07,1.07,0,0,0-1-.86,7.74,7.74,0,0,0-5.19,1.48,1.27,1.27,0,0,0-.23,1.26A5,5,0,0,0,79.33,137.45Z"/><path class="f7a8e7a6-f2e5-40b9-a6de-155ba7b96319" d="M229.82,75.28a13.85,13.85,0,0,0,5.11-3c.18-.16.14-.56.19-.85a1.23,1.23,0,0,0-1.42-.87A13.35,13.35,0,0,0,229,73.28a.62.62,0,0,0-.23.39,3.75,3.75,0,0,0,.29,1.27A.92.92,0,0,0,229.82,75.28Z"/><path class="f7a8e7a6-f2e5-40b9-a6de-155ba7b96319" d="M217.54,148.86a20.74,20.74,0,0,0,5.33,1.28c.22,0,.52-.24.74-.43s.06-1-.27-1.22a14.65,14.65,0,0,0-5.18-1.9,2.46,2.46,0,0,0-.6.11c-.17.28-.58.64-.59,1A1.45,1.45,0,0,0,217.54,148.86Z"/><path class="f7a8e7a6-f2e5-40b9-a6de-155ba7b96319" d="M128.07,37.72c.41,0,1-.5.91-.84q-.39-2.66-.81-5.32a.88.88,0,0,0-1-.57c-.25.1-.58.3-.64.52a7.81,7.81,0,0,0-.25,1.32c.09,1.34.11,2.25.22,3.14a3.88,3.88,0,0,0,.47,1.25A1.12,1.12,0,0,0,128.07,37.72Z"/><path class="f7a8e7a6-f2e5-40b9-a6de-155ba7b96319" d="M31.88,111.05c1.3.47,2.61.93,3.93,1.35a2,2,0,0,0,.91,0,1.07,1.07,0,0,0,1-.86,1,1,0,0,0-.5-1.18c-1.53-.86-3.27-.73-4.76-1.1a7.91,7.91,0,0,0-.89.64C31.24,110.13,31.47,110.9,31.88,111.05Z"/><path class="f7a8e7a6-f2e5-40b9-a6de-155ba7b96319" d="M43.19,39.54a1,1,0,0,0,.85-.06,5,5,0,0,0,.88-.83,2.55,2.55,0,0,0,0-.56,4.74,4.74,0,0,0-3-3.13,1,1,0,0,0-1.18,1A5.79,5.79,0,0,0,43.19,39.54Z"/><path class="f7a8e7a6-f2e5-40b9-a6de-155ba7b96319" d="M60,81.4c.68.43,1.87-.38,1.94-1.32,0-.15,0-.34,0-.45a5.72,5.72,0,0,0-3.4-2.08c-.3-.08-.8.31-1.1.59a.89.89,0,0,0,0,.83A7.34,7.34,0,0,0,60,81.4Z"/><path class="f7a8e7a6-f2e5-40b9-a6de-155ba7b96319" d="M72.46,71.75a1.45,1.45,0,0,0,1.73-1.11c0-.15.06-.35,0-.45a7.22,7.22,0,0,0-2.69-2.46,1.09,1.09,0,0,0-1.31.89A3.36,3.36,0,0,0,72.46,71.75Z"/><path class="f7a8e7a6-f2e5-40b9-a6de-155ba7b96319" d="M147.78,90.71a10.05,10.05,0,0,0-1.54,1.59,1.59,1.59,0,0,0,0,1.23,1.25,1.25,0,0,0,1.53.59,3.67,3.67,0,0,0,1.87-1.85,2.37,2.37,0,0,0,.1-.55,5.26,5.26,0,0,0-.74-1A.9.9,0,0,0,147.78,90.71Z"/><path class="f7a8e7a6-f2e5-40b9-a6de-155ba7b96319" d="M107.33,25a1.71,1.71,0,0,0,2-1.35A1.56,1.56,0,0,0,108,22.05a1.76,1.76,0,0,0-1.77,1.17A1.45,1.45,0,0,0,107.33,25Z"/><path class="f7a8e7a6-f2e5-40b9-a6de-155ba7b96319" d="M166.39,119.67a1.84,1.84,0,0,0,2.4-.36,2.48,2.48,0,0,0,.25-.81,1.7,1.7,0,0,0-.18-.41,1.69,1.69,0,0,0-2.86.42A1,1,0,0,0,166.39,119.67Z"/><path class="f7a8e7a6-f2e5-40b9-a6de-155ba7b96319" d="M209,125.54a.82.82,0,0,0-.12.41,1.44,1.44,0,0,0,1.38,1.4,1.31,1.31,0,0,0,1.43-.76,1.41,1.41,0,0,0,.08-.44,1.59,1.59,0,0,0-1.2-1.14A1.47,1.47,0,0,0,209,125.54Z"/><path class="f7a8e7a6-f2e5-40b9-a6de-155ba7b96319" d="M97.51,50.33a1.9,1.9,0,0,0,.39-.23c.39-.3.6-1,.34-1.21a3.35,3.35,0,0,0-.8-.41,4.77,4.77,0,0,0-.86.26A1,1,0,0,0,96.29,50,1,1,0,0,0,97.51,50.33Z"/></svg>