<svg id="logo" xmlns="http://www.w3.org/2000/svg" viewBox="0 0 114.47 32"><defs><style>.cls-1{fill:#fff;}</style></defs><circle cx="16" cy="16" r="16"/><path class="cls-1" d="M26.7,11.54c-8.2,2.31-8,7.18-4.23,8.46v1.67H19.58c-.23-.3-1.15-.85-3.08-.85s-2.85.55-3.08.85H10.53V20c3.73-1.4,3.9-4.17,2.45-4.75H11.23V15a7.22,7.22,0,0,1-6.54-3.42.29.29,0,0,1,.22-.48h6.32V10.9H13v-.57H27.36s0,.71,0,.85S27.11,11.43,26.7,11.54Z"/><path d="M48.75,9v4h-11V9Zm-9,15.93V8.71a6.41,6.41,0,0,1,.73-3.23A4.6,4.6,0,0,1,42.6,3.56a7.39,7.39,0,0,1,3.16-.64A14.68,14.68,0,0,1,48,3.09c.71.11,1.25.2,1.59.28l-.86,4.07A3.79,3.79,0,0,0,48,7.29a5.61,5.61,0,0,0-.76-.06,1.48,1.48,0,0,0-1.14.34,1.32,1.32,0,0,0-.29.89V24.91Z"/><path d="M58,25.29a8.85,8.85,0,0,1-4.39-1,6.92,6.92,0,0,1-2.8-2.85,8.92,8.92,0,0,1-1-4.25,9,9,0,0,1,1-4.26,6.92,6.92,0,0,1,2.8-2.85,9.94,9.94,0,0,1,8.77,0,6.92,6.92,0,0,1,2.8,2.85,9,9,0,0,1,1,4.26,8.92,8.92,0,0,1-1,4.25,6.92,6.92,0,0,1-2.8,2.85A8.84,8.84,0,0,1,58,25.29Zm0-4.19a1.79,1.79,0,0,0,1.24-.48,3.11,3.11,0,0,0,.81-1.37,7.05,7.05,0,0,0,.28-2.13A7,7,0,0,0,60.1,15a3.11,3.11,0,0,0-.81-1.37,1.79,1.79,0,0,0-1.24-.48,1.93,1.93,0,0,0-1.31.48A3.13,3.13,0,0,0,55.91,15a7,7,0,0,0-.28,2.12,7.05,7.05,0,0,0,.28,2.13,3.13,3.13,0,0,0,.83,1.37A1.93,1.93,0,0,0,58.05,21.1Z"/><path d="M68.66,24.91V9h6v3h-1A4.54,4.54,0,0,1,75,9.53a3.33,3.33,0,0,1,2.18-.76,4.4,4.4,0,0,1,.73.05,4.79,4.79,0,0,1,.7.16v4.83a4.89,4.89,0,0,0-1-.21,9,9,0,0,0-1-.08,2.94,2.94,0,0,0-1.48.38,2.73,2.73,0,0,0-1,1,3.21,3.21,0,0,0-.38,1.58v8.39Z"/><path d="M87.8,31a12.33,12.33,0,0,1-4.28-.67,6.54,6.54,0,0,1-2.76-1.82,4.55,4.55,0,0,1-1.1-2.6h5a1.17,1.17,0,0,0,.41.69,2.17,2.17,0,0,0,.85.4,4.55,4.55,0,0,0,1.16.14,3.08,3.08,0,0,0,1.82-.52,2,2,0,0,0,.73-1.78V21.92h.63a2.9,2.9,0,0,1-.95,1.73,4.21,4.21,0,0,1-1.53.85,6.07,6.07,0,0,1-2,.29A6.27,6.27,0,0,1,82.68,24a5.53,5.53,0,0,1-2.25-2.48,9.8,9.8,0,0,1-.85-4.42,10.43,10.43,0,0,1,.89-4.63,6.08,6.08,0,0,1,2.3-2.62,5.76,5.76,0,0,1,3-.83,4.84,4.84,0,0,1,2,.41,4.3,4.3,0,0,1,1.48,1.08,4.76,4.76,0,0,1,.9,1.43h.41V9h6V24.83a5.21,5.21,0,0,1-1.09,3.31,6.79,6.79,0,0,1-3.06,2.12A13.13,13.13,0,0,1,87.8,31Zm.07-10.23a2.13,2.13,0,0,0,1.34-.43,2.85,2.85,0,0,0,.86-1.25,5.75,5.75,0,0,0,.3-2,6,6,0,0,0-.3-2,2.89,2.89,0,0,0-.86-1.28,2.09,2.09,0,0,0-1.34-.45,2,2,0,0,0-1.33.45,2.71,2.71,0,0,0-.84,1.28,6,6,0,0,0-.29,2,5.81,5.81,0,0,0,.29,2,2.58,2.58,0,0,0,.84,1.24A2.11,2.11,0,0,0,87.87,20.77Z"/><path d="M104.18,24.59a5.39,5.39,0,0,1-3-.85,5.84,5.84,0,0,1-2.16-2.55,10.17,10.17,0,0,1-.81-4.33,10.07,10.07,0,0,1,.85-4.43,5.82,5.82,0,0,1,2.2-2.49,5.49,5.49,0,0,1,2.83-.8,4.6,4.6,0,0,1,2,.39,4.16,4.16,0,0,1,1.42,1,4.85,4.85,0,0,1,.86,1.4h.12V4h6V24.91h-6v-3h-.12a4.29,4.29,0,0,1-.9,1.37,4.22,4.22,0,0,1-1.41.95A4.86,4.86,0,0,1,104.18,24.59Zm2.43-3.73A2.07,2.07,0,0,0,108,20.4a2.85,2.85,0,0,0,.86-1.29,5.91,5.91,0,0,0,.3-2,6,6,0,0,0-.3-2,2.81,2.81,0,0,0-.86-1.28,2.07,2.07,0,0,0-1.34-.45,2,2,0,0,0-1.33.45,2.87,2.87,0,0,0-.84,1.28,6.25,6.25,0,0,0-.29,2,6.27,6.27,0,0,0,.29,2,2.87,2.87,0,0,0,.84,1.28A2,2,0,0,0,106.61,20.86Z"/></svg>